%TF.GenerationSoftware,KiCad,Pcbnew,6.99.0-unknown-38bd612c01~148~ubuntu21.10.1*%
%TF.CreationDate,2022-03-28T19:56:38+02:00*%
%TF.ProjectId,clockmodule,636c6f63-6b6d-46f6-9475-6c652e6b6963,rev?*%
%TF.SameCoordinates,PX47868c0PY17d7840*%
%TF.FileFunction,Legend,Top*%
%TF.FilePolarity,Positive*%
%FSLAX46Y46*%
G04 Gerber Fmt 4.6, Leading zero omitted, Abs format (unit mm)*
G04 Created by KiCad (PCBNEW 6.99.0-unknown-38bd612c01~148~ubuntu21.10.1) date 2022-03-28 19:56:38*
%MOMM*%
%LPD*%
G01*
G04 APERTURE LIST*
%ADD10C,0.250000*%
%ADD11C,0.187500*%
%ADD12C,0.400000*%
%ADD13C,0.150000*%
%ADD14C,0.200660*%
%ADD15C,0.120000*%
%ADD16C,0.381000*%
%ADD17C,3.500000*%
%ADD18O,1.500000X2.000000*%
G04 APERTURE END LIST*
D10*
X51714047Y-59184285D02*
X51618809Y-59279523D01*
X51618809Y-59279523D02*
X51333095Y-59374761D01*
X51333095Y-59374761D02*
X51142619Y-59374761D01*
X51142619Y-59374761D02*
X50856904Y-59279523D01*
X50856904Y-59279523D02*
X50666428Y-59089047D01*
X50666428Y-59089047D02*
X50571190Y-58898571D01*
X50571190Y-58898571D02*
X50475952Y-58517619D01*
X50475952Y-58517619D02*
X50475952Y-58231904D01*
X50475952Y-58231904D02*
X50571190Y-57850952D01*
X50571190Y-57850952D02*
X50666428Y-57660476D01*
X50666428Y-57660476D02*
X50856904Y-57470000D01*
X50856904Y-57470000D02*
X51142619Y-57374761D01*
X51142619Y-57374761D02*
X51333095Y-57374761D01*
X51333095Y-57374761D02*
X51618809Y-57470000D01*
X51618809Y-57470000D02*
X51714047Y-57565238D01*
X52856904Y-59374761D02*
X52666428Y-59279523D01*
X52666428Y-59279523D02*
X52571190Y-59089047D01*
X52571190Y-59089047D02*
X52571190Y-57374761D01*
X53904523Y-59374761D02*
X53714047Y-59279523D01*
X53714047Y-59279523D02*
X53618809Y-59184285D01*
X53618809Y-59184285D02*
X53523571Y-58993809D01*
X53523571Y-58993809D02*
X53523571Y-58422380D01*
X53523571Y-58422380D02*
X53618809Y-58231904D01*
X53618809Y-58231904D02*
X53714047Y-58136666D01*
X53714047Y-58136666D02*
X53904523Y-58041428D01*
X53904523Y-58041428D02*
X54190238Y-58041428D01*
X54190238Y-58041428D02*
X54380714Y-58136666D01*
X54380714Y-58136666D02*
X54475952Y-58231904D01*
X54475952Y-58231904D02*
X54571190Y-58422380D01*
X54571190Y-58422380D02*
X54571190Y-58993809D01*
X54571190Y-58993809D02*
X54475952Y-59184285D01*
X54475952Y-59184285D02*
X54380714Y-59279523D01*
X54380714Y-59279523D02*
X54190238Y-59374761D01*
X54190238Y-59374761D02*
X53904523Y-59374761D01*
X56285476Y-59279523D02*
X56095000Y-59374761D01*
X56095000Y-59374761D02*
X55714047Y-59374761D01*
X55714047Y-59374761D02*
X55523571Y-59279523D01*
X55523571Y-59279523D02*
X55428333Y-59184285D01*
X55428333Y-59184285D02*
X55333095Y-58993809D01*
X55333095Y-58993809D02*
X55333095Y-58422380D01*
X55333095Y-58422380D02*
X55428333Y-58231904D01*
X55428333Y-58231904D02*
X55523571Y-58136666D01*
X55523571Y-58136666D02*
X55714047Y-58041428D01*
X55714047Y-58041428D02*
X56095000Y-58041428D01*
X56095000Y-58041428D02*
X56285476Y-58136666D01*
X57142619Y-59374761D02*
X57142619Y-57374761D01*
X57333095Y-58612857D02*
X57904524Y-59374761D01*
X57904524Y-58041428D02*
X57142619Y-58803333D01*
X61009286Y-57470000D02*
X60818810Y-57374761D01*
X60818810Y-57374761D02*
X60533096Y-57374761D01*
X60533096Y-57374761D02*
X60247381Y-57470000D01*
X60247381Y-57470000D02*
X60056905Y-57660476D01*
X60056905Y-57660476D02*
X59961667Y-57850952D01*
X59961667Y-57850952D02*
X59866429Y-58231904D01*
X59866429Y-58231904D02*
X59866429Y-58517619D01*
X59866429Y-58517619D02*
X59961667Y-58898571D01*
X59961667Y-58898571D02*
X60056905Y-59089047D01*
X60056905Y-59089047D02*
X60247381Y-59279523D01*
X60247381Y-59279523D02*
X60533096Y-59374761D01*
X60533096Y-59374761D02*
X60723572Y-59374761D01*
X60723572Y-59374761D02*
X61009286Y-59279523D01*
X61009286Y-59279523D02*
X61104524Y-59184285D01*
X61104524Y-59184285D02*
X61104524Y-58517619D01*
X61104524Y-58517619D02*
X60723572Y-58517619D01*
X62723572Y-59279523D02*
X62533096Y-59374761D01*
X62533096Y-59374761D02*
X62152143Y-59374761D01*
X62152143Y-59374761D02*
X61961667Y-59279523D01*
X61961667Y-59279523D02*
X61866429Y-59089047D01*
X61866429Y-59089047D02*
X61866429Y-58327142D01*
X61866429Y-58327142D02*
X61961667Y-58136666D01*
X61961667Y-58136666D02*
X62152143Y-58041428D01*
X62152143Y-58041428D02*
X62533096Y-58041428D01*
X62533096Y-58041428D02*
X62723572Y-58136666D01*
X62723572Y-58136666D02*
X62818810Y-58327142D01*
X62818810Y-58327142D02*
X62818810Y-58517619D01*
X62818810Y-58517619D02*
X61866429Y-58708095D01*
X63675953Y-58041428D02*
X63675953Y-59374761D01*
X63675953Y-58231904D02*
X63771191Y-58136666D01*
X63771191Y-58136666D02*
X63961667Y-58041428D01*
X63961667Y-58041428D02*
X64247382Y-58041428D01*
X64247382Y-58041428D02*
X64437858Y-58136666D01*
X64437858Y-58136666D02*
X64533096Y-58327142D01*
X64533096Y-58327142D02*
X64533096Y-59374761D01*
X66247382Y-59279523D02*
X66056906Y-59374761D01*
X66056906Y-59374761D02*
X65675953Y-59374761D01*
X65675953Y-59374761D02*
X65485477Y-59279523D01*
X65485477Y-59279523D02*
X65390239Y-59089047D01*
X65390239Y-59089047D02*
X65390239Y-58327142D01*
X65390239Y-58327142D02*
X65485477Y-58136666D01*
X65485477Y-58136666D02*
X65675953Y-58041428D01*
X65675953Y-58041428D02*
X66056906Y-58041428D01*
X66056906Y-58041428D02*
X66247382Y-58136666D01*
X66247382Y-58136666D02*
X66342620Y-58327142D01*
X66342620Y-58327142D02*
X66342620Y-58517619D01*
X66342620Y-58517619D02*
X65390239Y-58708095D01*
X67199763Y-59374761D02*
X67199763Y-58041428D01*
X67199763Y-58422380D02*
X67295001Y-58231904D01*
X67295001Y-58231904D02*
X67390239Y-58136666D01*
X67390239Y-58136666D02*
X67580715Y-58041428D01*
X67580715Y-58041428D02*
X67771192Y-58041428D01*
X69295001Y-59374761D02*
X69295001Y-58327142D01*
X69295001Y-58327142D02*
X69199763Y-58136666D01*
X69199763Y-58136666D02*
X69009287Y-58041428D01*
X69009287Y-58041428D02*
X68628334Y-58041428D01*
X68628334Y-58041428D02*
X68437858Y-58136666D01*
X69295001Y-59279523D02*
X69104525Y-59374761D01*
X69104525Y-59374761D02*
X68628334Y-59374761D01*
X68628334Y-59374761D02*
X68437858Y-59279523D01*
X68437858Y-59279523D02*
X68342620Y-59089047D01*
X68342620Y-59089047D02*
X68342620Y-58898571D01*
X68342620Y-58898571D02*
X68437858Y-58708095D01*
X68437858Y-58708095D02*
X68628334Y-58612857D01*
X68628334Y-58612857D02*
X69104525Y-58612857D01*
X69104525Y-58612857D02*
X69295001Y-58517619D01*
X69961668Y-58041428D02*
X70723572Y-58041428D01*
X70247382Y-57374761D02*
X70247382Y-59089047D01*
X70247382Y-59089047D02*
X70342620Y-59279523D01*
X70342620Y-59279523D02*
X70533096Y-59374761D01*
X70533096Y-59374761D02*
X70723572Y-59374761D01*
X71675953Y-59374761D02*
X71485477Y-59279523D01*
X71485477Y-59279523D02*
X71390239Y-59184285D01*
X71390239Y-59184285D02*
X71295001Y-58993809D01*
X71295001Y-58993809D02*
X71295001Y-58422380D01*
X71295001Y-58422380D02*
X71390239Y-58231904D01*
X71390239Y-58231904D02*
X71485477Y-58136666D01*
X71485477Y-58136666D02*
X71675953Y-58041428D01*
X71675953Y-58041428D02*
X71961668Y-58041428D01*
X71961668Y-58041428D02*
X72152144Y-58136666D01*
X72152144Y-58136666D02*
X72247382Y-58231904D01*
X72247382Y-58231904D02*
X72342620Y-58422380D01*
X72342620Y-58422380D02*
X72342620Y-58993809D01*
X72342620Y-58993809D02*
X72247382Y-59184285D01*
X72247382Y-59184285D02*
X72152144Y-59279523D01*
X72152144Y-59279523D02*
X71961668Y-59374761D01*
X71961668Y-59374761D02*
X71675953Y-59374761D01*
X73199763Y-59374761D02*
X73199763Y-58041428D01*
X73199763Y-58422380D02*
X73295001Y-58231904D01*
X73295001Y-58231904D02*
X73390239Y-58136666D01*
X73390239Y-58136666D02*
X73580715Y-58041428D01*
X73580715Y-58041428D02*
X73771192Y-58041428D01*
X50571190Y-62614761D02*
X50571190Y-61281428D01*
X50571190Y-61662380D02*
X50666428Y-61471904D01*
X50666428Y-61471904D02*
X50761666Y-61376666D01*
X50761666Y-61376666D02*
X50952142Y-61281428D01*
X50952142Y-61281428D02*
X51142619Y-61281428D01*
X52571190Y-62519523D02*
X52380714Y-62614761D01*
X52380714Y-62614761D02*
X51999761Y-62614761D01*
X51999761Y-62614761D02*
X51809285Y-62519523D01*
X51809285Y-62519523D02*
X51714047Y-62329047D01*
X51714047Y-62329047D02*
X51714047Y-61567142D01*
X51714047Y-61567142D02*
X51809285Y-61376666D01*
X51809285Y-61376666D02*
X51999761Y-61281428D01*
X51999761Y-61281428D02*
X52380714Y-61281428D01*
X52380714Y-61281428D02*
X52571190Y-61376666D01*
X52571190Y-61376666D02*
X52666428Y-61567142D01*
X52666428Y-61567142D02*
X52666428Y-61757619D01*
X52666428Y-61757619D02*
X51714047Y-61948095D01*
X53333095Y-61281428D02*
X53809285Y-62614761D01*
X53809285Y-62614761D02*
X54285476Y-61281428D01*
X56628333Y-60614761D02*
X56818810Y-60614761D01*
X56818810Y-60614761D02*
X57009286Y-60710000D01*
X57009286Y-60710000D02*
X57104524Y-60805238D01*
X57104524Y-60805238D02*
X57199762Y-60995714D01*
X57199762Y-60995714D02*
X57295000Y-61376666D01*
X57295000Y-61376666D02*
X57295000Y-61852857D01*
X57295000Y-61852857D02*
X57199762Y-62233809D01*
X57199762Y-62233809D02*
X57104524Y-62424285D01*
X57104524Y-62424285D02*
X57009286Y-62519523D01*
X57009286Y-62519523D02*
X56818810Y-62614761D01*
X56818810Y-62614761D02*
X56628333Y-62614761D01*
X56628333Y-62614761D02*
X56437857Y-62519523D01*
X56437857Y-62519523D02*
X56342619Y-62424285D01*
X56342619Y-62424285D02*
X56247381Y-62233809D01*
X56247381Y-62233809D02*
X56152143Y-61852857D01*
X56152143Y-61852857D02*
X56152143Y-61376666D01*
X56152143Y-61376666D02*
X56247381Y-60995714D01*
X56247381Y-60995714D02*
X56342619Y-60805238D01*
X56342619Y-60805238D02*
X56437857Y-60710000D01*
X56437857Y-60710000D02*
X56628333Y-60614761D01*
X58152143Y-62424285D02*
X58247381Y-62519523D01*
X58247381Y-62519523D02*
X58152143Y-62614761D01*
X58152143Y-62614761D02*
X58056905Y-62519523D01*
X58056905Y-62519523D02*
X58152143Y-62424285D01*
X58152143Y-62424285D02*
X58152143Y-62614761D01*
X60152143Y-62614761D02*
X59009286Y-62614761D01*
X59580714Y-62614761D02*
X59580714Y-60614761D01*
X59580714Y-60614761D02*
X59390238Y-60900476D01*
X59390238Y-60900476D02*
X59199762Y-61090952D01*
X59199762Y-61090952D02*
X59009286Y-61186190D01*
X62114048Y-60805238D02*
X62209286Y-60710000D01*
X62209286Y-60710000D02*
X62399762Y-60614761D01*
X62399762Y-60614761D02*
X62875953Y-60614761D01*
X62875953Y-60614761D02*
X63066429Y-60710000D01*
X63066429Y-60710000D02*
X63161667Y-60805238D01*
X63161667Y-60805238D02*
X63256905Y-60995714D01*
X63256905Y-60995714D02*
X63256905Y-61186190D01*
X63256905Y-61186190D02*
X63161667Y-61471904D01*
X63161667Y-61471904D02*
X62018810Y-62614761D01*
X62018810Y-62614761D02*
X63256905Y-62614761D01*
X64495000Y-60614761D02*
X64685477Y-60614761D01*
X64685477Y-60614761D02*
X64875953Y-60710000D01*
X64875953Y-60710000D02*
X64971191Y-60805238D01*
X64971191Y-60805238D02*
X65066429Y-60995714D01*
X65066429Y-60995714D02*
X65161667Y-61376666D01*
X65161667Y-61376666D02*
X65161667Y-61852857D01*
X65161667Y-61852857D02*
X65066429Y-62233809D01*
X65066429Y-62233809D02*
X64971191Y-62424285D01*
X64971191Y-62424285D02*
X64875953Y-62519523D01*
X64875953Y-62519523D02*
X64685477Y-62614761D01*
X64685477Y-62614761D02*
X64495000Y-62614761D01*
X64495000Y-62614761D02*
X64304524Y-62519523D01*
X64304524Y-62519523D02*
X64209286Y-62424285D01*
X64209286Y-62424285D02*
X64114048Y-62233809D01*
X64114048Y-62233809D02*
X64018810Y-61852857D01*
X64018810Y-61852857D02*
X64018810Y-61376666D01*
X64018810Y-61376666D02*
X64114048Y-60995714D01*
X64114048Y-60995714D02*
X64209286Y-60805238D01*
X64209286Y-60805238D02*
X64304524Y-60710000D01*
X64304524Y-60710000D02*
X64495000Y-60614761D01*
X65923572Y-60805238D02*
X66018810Y-60710000D01*
X66018810Y-60710000D02*
X66209286Y-60614761D01*
X66209286Y-60614761D02*
X66685477Y-60614761D01*
X66685477Y-60614761D02*
X66875953Y-60710000D01*
X66875953Y-60710000D02*
X66971191Y-60805238D01*
X66971191Y-60805238D02*
X67066429Y-60995714D01*
X67066429Y-60995714D02*
X67066429Y-61186190D01*
X67066429Y-61186190D02*
X66971191Y-61471904D01*
X66971191Y-61471904D02*
X65828334Y-62614761D01*
X65828334Y-62614761D02*
X67066429Y-62614761D01*
X67828334Y-60805238D02*
X67923572Y-60710000D01*
X67923572Y-60710000D02*
X68114048Y-60614761D01*
X68114048Y-60614761D02*
X68590239Y-60614761D01*
X68590239Y-60614761D02*
X68780715Y-60710000D01*
X68780715Y-60710000D02*
X68875953Y-60805238D01*
X68875953Y-60805238D02*
X68971191Y-60995714D01*
X68971191Y-60995714D02*
X68971191Y-61186190D01*
X68971191Y-61186190D02*
X68875953Y-61471904D01*
X68875953Y-61471904D02*
X67733096Y-62614761D01*
X67733096Y-62614761D02*
X68971191Y-62614761D01*
D11*
X20428571Y-32535713D02*
X20428571Y-33249999D01*
X20428571Y-33249999D02*
X21142857Y-33321427D01*
X21142857Y-33321427D02*
X21071428Y-33249999D01*
X21071428Y-33249999D02*
X21000000Y-33107142D01*
X21000000Y-33107142D02*
X21000000Y-32749999D01*
X21000000Y-32749999D02*
X21071428Y-32607142D01*
X21071428Y-32607142D02*
X21142857Y-32535713D01*
X21142857Y-32535713D02*
X21285714Y-32464284D01*
X21285714Y-32464284D02*
X21642857Y-32464284D01*
X21642857Y-32464284D02*
X21785714Y-32535713D01*
X21785714Y-32535713D02*
X21857142Y-32607142D01*
X21857142Y-32607142D02*
X21928571Y-32749999D01*
X21928571Y-32749999D02*
X21928571Y-33107142D01*
X21928571Y-33107142D02*
X21857142Y-33249999D01*
X21857142Y-33249999D02*
X21785714Y-33321427D01*
X20428571Y-32035713D02*
X21928571Y-31535713D01*
X21928571Y-31535713D02*
X20428571Y-31035713D01*
D12*
X9923332Y-56454761D02*
X11256665Y-56454761D01*
X11256665Y-56454761D02*
X10399522Y-58454761D01*
X11828094Y-57121428D02*
X12304284Y-58454761D01*
X12304284Y-58454761D02*
X12780475Y-57121428D01*
X13542380Y-57692857D02*
X15066190Y-57692857D01*
X17066189Y-58454761D02*
X15923332Y-58454761D01*
X16494760Y-58454761D02*
X16494760Y-56454761D01*
X16494760Y-56454761D02*
X16304284Y-56740476D01*
X16304284Y-56740476D02*
X16113808Y-56930952D01*
X16113808Y-56930952D02*
X15923332Y-57026190D01*
X18875713Y-56454761D02*
X17923332Y-56454761D01*
X17923332Y-56454761D02*
X17828094Y-57407142D01*
X17828094Y-57407142D02*
X17923332Y-57311904D01*
X17923332Y-57311904D02*
X18113808Y-57216666D01*
X18113808Y-57216666D02*
X18589999Y-57216666D01*
X18589999Y-57216666D02*
X18780475Y-57311904D01*
X18780475Y-57311904D02*
X18875713Y-57407142D01*
X18875713Y-57407142D02*
X18970951Y-57597619D01*
X18970951Y-57597619D02*
X18970951Y-58073809D01*
X18970951Y-58073809D02*
X18875713Y-58264285D01*
X18875713Y-58264285D02*
X18780475Y-58359523D01*
X18780475Y-58359523D02*
X18589999Y-58454761D01*
X18589999Y-58454761D02*
X18113808Y-58454761D01*
X18113808Y-58454761D02*
X17923332Y-58359523D01*
X17923332Y-58359523D02*
X17828094Y-58264285D01*
X19637618Y-57121428D02*
X20113808Y-58454761D01*
X20113808Y-58454761D02*
X20589999Y-57121428D01*
X23789999Y-57502380D02*
X23694761Y-57407142D01*
X23694761Y-57407142D02*
X23504285Y-57311904D01*
X23504285Y-57311904D02*
X23313809Y-57311904D01*
X23313809Y-57311904D02*
X23123333Y-57407142D01*
X23123333Y-57407142D02*
X23028094Y-57502380D01*
X23028094Y-57502380D02*
X22932856Y-57692857D01*
X22932856Y-57692857D02*
X22932856Y-57883333D01*
X22932856Y-57883333D02*
X23028094Y-58073809D01*
X23028094Y-58073809D02*
X23123333Y-58169047D01*
X23123333Y-58169047D02*
X23313809Y-58264285D01*
X23313809Y-58264285D02*
X23504285Y-58264285D01*
X23504285Y-58264285D02*
X23694761Y-58169047D01*
X23694761Y-58169047D02*
X23789999Y-58073809D01*
X23789999Y-57311904D02*
X23789999Y-58073809D01*
X23789999Y-58073809D02*
X23885237Y-58169047D01*
X23885237Y-58169047D02*
X23980475Y-58169047D01*
X23980475Y-58169047D02*
X24170952Y-58073809D01*
X24170952Y-58073809D02*
X24266190Y-57883333D01*
X24266190Y-57883333D02*
X24266190Y-57407142D01*
X24266190Y-57407142D02*
X24075714Y-57121428D01*
X24075714Y-57121428D02*
X23789999Y-56930952D01*
X23789999Y-56930952D02*
X23409047Y-56835714D01*
X23409047Y-56835714D02*
X23028094Y-56930952D01*
X23028094Y-56930952D02*
X22742380Y-57121428D01*
X22742380Y-57121428D02*
X22551904Y-57407142D01*
X22551904Y-57407142D02*
X22456666Y-57788095D01*
X22456666Y-57788095D02*
X22551904Y-58169047D01*
X22551904Y-58169047D02*
X22742380Y-58454761D01*
X22742380Y-58454761D02*
X23028094Y-58645238D01*
X23028094Y-58645238D02*
X23409047Y-58740476D01*
X23409047Y-58740476D02*
X23789999Y-58645238D01*
X23789999Y-58645238D02*
X24075714Y-58454761D01*
X27370952Y-58454761D02*
X26228095Y-58454761D01*
X26799523Y-58454761D02*
X26799523Y-56454761D01*
X26799523Y-56454761D02*
X26609047Y-56740476D01*
X26609047Y-56740476D02*
X26418571Y-56930952D01*
X26418571Y-56930952D02*
X26228095Y-57026190D01*
X28609047Y-56454761D02*
X28799524Y-56454761D01*
X28799524Y-56454761D02*
X28990000Y-56550000D01*
X28990000Y-56550000D02*
X29085238Y-56645238D01*
X29085238Y-56645238D02*
X29180476Y-56835714D01*
X29180476Y-56835714D02*
X29275714Y-57216666D01*
X29275714Y-57216666D02*
X29275714Y-57692857D01*
X29275714Y-57692857D02*
X29180476Y-58073809D01*
X29180476Y-58073809D02*
X29085238Y-58264285D01*
X29085238Y-58264285D02*
X28990000Y-58359523D01*
X28990000Y-58359523D02*
X28799524Y-58454761D01*
X28799524Y-58454761D02*
X28609047Y-58454761D01*
X28609047Y-58454761D02*
X28418571Y-58359523D01*
X28418571Y-58359523D02*
X28323333Y-58264285D01*
X28323333Y-58264285D02*
X28228095Y-58073809D01*
X28228095Y-58073809D02*
X28132857Y-57692857D01*
X28132857Y-57692857D02*
X28132857Y-57216666D01*
X28132857Y-57216666D02*
X28228095Y-56835714D01*
X28228095Y-56835714D02*
X28323333Y-56645238D01*
X28323333Y-56645238D02*
X28418571Y-56550000D01*
X28418571Y-56550000D02*
X28609047Y-56454761D01*
X30513809Y-56454761D02*
X30704286Y-56454761D01*
X30704286Y-56454761D02*
X30894762Y-56550000D01*
X30894762Y-56550000D02*
X30990000Y-56645238D01*
X30990000Y-56645238D02*
X31085238Y-56835714D01*
X31085238Y-56835714D02*
X31180476Y-57216666D01*
X31180476Y-57216666D02*
X31180476Y-57692857D01*
X31180476Y-57692857D02*
X31085238Y-58073809D01*
X31085238Y-58073809D02*
X30990000Y-58264285D01*
X30990000Y-58264285D02*
X30894762Y-58359523D01*
X30894762Y-58359523D02*
X30704286Y-58454761D01*
X30704286Y-58454761D02*
X30513809Y-58454761D01*
X30513809Y-58454761D02*
X30323333Y-58359523D01*
X30323333Y-58359523D02*
X30228095Y-58264285D01*
X30228095Y-58264285D02*
X30132857Y-58073809D01*
X30132857Y-58073809D02*
X30037619Y-57692857D01*
X30037619Y-57692857D02*
X30037619Y-57216666D01*
X30037619Y-57216666D02*
X30132857Y-56835714D01*
X30132857Y-56835714D02*
X30228095Y-56645238D01*
X30228095Y-56645238D02*
X30323333Y-56550000D01*
X30323333Y-56550000D02*
X30513809Y-56454761D01*
X32037619Y-58454761D02*
X32037619Y-57121428D01*
X32037619Y-57311904D02*
X32132857Y-57216666D01*
X32132857Y-57216666D02*
X32323333Y-57121428D01*
X32323333Y-57121428D02*
X32609048Y-57121428D01*
X32609048Y-57121428D02*
X32799524Y-57216666D01*
X32799524Y-57216666D02*
X32894762Y-57407142D01*
X32894762Y-57407142D02*
X32894762Y-58454761D01*
X32894762Y-57407142D02*
X32990000Y-57216666D01*
X32990000Y-57216666D02*
X33180476Y-57121428D01*
X33180476Y-57121428D02*
X33466190Y-57121428D01*
X33466190Y-57121428D02*
X33656667Y-57216666D01*
X33656667Y-57216666D02*
X33751905Y-57407142D01*
X33751905Y-57407142D02*
X33751905Y-58454761D01*
X34609048Y-57883333D02*
X35561429Y-57883333D01*
X34418572Y-58454761D02*
X35085238Y-56454761D01*
X35085238Y-56454761D02*
X35751905Y-58454761D01*
D13*
X86107380Y-17812857D02*
X86059761Y-17908095D01*
X86059761Y-17908095D02*
X86012142Y-17955714D01*
X86012142Y-17955714D02*
X85916904Y-18003333D01*
X85916904Y-18003333D02*
X85631190Y-18003333D01*
X85631190Y-18003333D02*
X85535952Y-17955714D01*
X85535952Y-17955714D02*
X85488333Y-17908095D01*
X85488333Y-17908095D02*
X85440714Y-17812857D01*
X85440714Y-17812857D02*
X85440714Y-17670000D01*
X85440714Y-17670000D02*
X85488333Y-17574762D01*
X85488333Y-17574762D02*
X85535952Y-17527143D01*
X85535952Y-17527143D02*
X85631190Y-17479524D01*
X85631190Y-17479524D02*
X85916904Y-17479524D01*
X85916904Y-17479524D02*
X86012142Y-17527143D01*
X86012142Y-17527143D02*
X86059761Y-17574762D01*
X86059761Y-17574762D02*
X86107380Y-17670000D01*
X86107380Y-17670000D02*
X86107380Y-17812857D01*
X85440714Y-16622381D02*
X86107380Y-16622381D01*
X85440714Y-17050952D02*
X85964523Y-17050952D01*
X85964523Y-17050952D02*
X86059761Y-17003333D01*
X86059761Y-17003333D02*
X86107380Y-16908095D01*
X86107380Y-16908095D02*
X86107380Y-16765238D01*
X86107380Y-16765238D02*
X86059761Y-16670000D01*
X86059761Y-16670000D02*
X86012142Y-16622381D01*
X85440714Y-16289047D02*
X85440714Y-15908095D01*
X85107380Y-16146190D02*
X85964523Y-16146190D01*
X85964523Y-16146190D02*
X86059761Y-16098571D01*
X86059761Y-16098571D02*
X86107380Y-16003333D01*
X86107380Y-16003333D02*
X86107380Y-15908095D01*
X85440714Y-15574761D02*
X86440714Y-15574761D01*
X85488333Y-15574761D02*
X85440714Y-15479523D01*
X85440714Y-15479523D02*
X85440714Y-15289047D01*
X85440714Y-15289047D02*
X85488333Y-15193809D01*
X85488333Y-15193809D02*
X85535952Y-15146190D01*
X85535952Y-15146190D02*
X85631190Y-15098571D01*
X85631190Y-15098571D02*
X85916904Y-15098571D01*
X85916904Y-15098571D02*
X86012142Y-15146190D01*
X86012142Y-15146190D02*
X86059761Y-15193809D01*
X86059761Y-15193809D02*
X86107380Y-15289047D01*
X86107380Y-15289047D02*
X86107380Y-15479523D01*
X86107380Y-15479523D02*
X86059761Y-15574761D01*
X85440714Y-14241428D02*
X86107380Y-14241428D01*
X85440714Y-14669999D02*
X85964523Y-14669999D01*
X85964523Y-14669999D02*
X86059761Y-14622380D01*
X86059761Y-14622380D02*
X86107380Y-14527142D01*
X86107380Y-14527142D02*
X86107380Y-14384285D01*
X86107380Y-14384285D02*
X86059761Y-14289047D01*
X86059761Y-14289047D02*
X86012142Y-14241428D01*
X85440714Y-13908094D02*
X85440714Y-13527142D01*
X85107380Y-13765237D02*
X85964523Y-13765237D01*
X85964523Y-13765237D02*
X86059761Y-13717618D01*
X86059761Y-13717618D02*
X86107380Y-13622380D01*
X86107380Y-13622380D02*
X86107380Y-13527142D01*
X86107380Y-12450951D02*
X86059761Y-12546189D01*
X86059761Y-12546189D02*
X85964523Y-12593808D01*
X85964523Y-12593808D02*
X85107380Y-12593808D01*
X86059761Y-11689046D02*
X86107380Y-11784284D01*
X86107380Y-11784284D02*
X86107380Y-11974760D01*
X86107380Y-11974760D02*
X86059761Y-12069998D01*
X86059761Y-12069998D02*
X85964523Y-12117617D01*
X85964523Y-12117617D02*
X85583571Y-12117617D01*
X85583571Y-12117617D02*
X85488333Y-12069998D01*
X85488333Y-12069998D02*
X85440714Y-11974760D01*
X85440714Y-11974760D02*
X85440714Y-11784284D01*
X85440714Y-11784284D02*
X85488333Y-11689046D01*
X85488333Y-11689046D02*
X85583571Y-11641427D01*
X85583571Y-11641427D02*
X85678809Y-11641427D01*
X85678809Y-11641427D02*
X85774047Y-12117617D01*
X86107380Y-10784284D02*
X85107380Y-10784284D01*
X86059761Y-10784284D02*
X86107380Y-10879522D01*
X86107380Y-10879522D02*
X86107380Y-11069998D01*
X86107380Y-11069998D02*
X86059761Y-11165236D01*
X86059761Y-11165236D02*
X86012142Y-11212855D01*
X86012142Y-11212855D02*
X85916904Y-11260474D01*
X85916904Y-11260474D02*
X85631190Y-11260474D01*
X85631190Y-11260474D02*
X85535952Y-11212855D01*
X85535952Y-11212855D02*
X85488333Y-11165236D01*
X85488333Y-11165236D02*
X85440714Y-11069998D01*
X85440714Y-11069998D02*
X85440714Y-10879522D01*
X85440714Y-10879522D02*
X85488333Y-10784284D01*
D12*
X68272380Y-47214761D02*
X68653333Y-47214761D01*
X68653333Y-47214761D02*
X68843809Y-47310000D01*
X68843809Y-47310000D02*
X69034285Y-47500476D01*
X69034285Y-47500476D02*
X69129523Y-47881428D01*
X69129523Y-47881428D02*
X69129523Y-48548095D01*
X69129523Y-48548095D02*
X69034285Y-48929047D01*
X69034285Y-48929047D02*
X68843809Y-49119523D01*
X68843809Y-49119523D02*
X68653333Y-49214761D01*
X68653333Y-49214761D02*
X68272380Y-49214761D01*
X68272380Y-49214761D02*
X68081904Y-49119523D01*
X68081904Y-49119523D02*
X67891428Y-48929047D01*
X67891428Y-48929047D02*
X67796190Y-48548095D01*
X67796190Y-48548095D02*
X67796190Y-47881428D01*
X67796190Y-47881428D02*
X67891428Y-47500476D01*
X67891428Y-47500476D02*
X68081904Y-47310000D01*
X68081904Y-47310000D02*
X68272380Y-47214761D01*
X70843809Y-47881428D02*
X70843809Y-49214761D01*
X69986666Y-47881428D02*
X69986666Y-48929047D01*
X69986666Y-48929047D02*
X70081904Y-49119523D01*
X70081904Y-49119523D02*
X70272380Y-49214761D01*
X70272380Y-49214761D02*
X70558095Y-49214761D01*
X70558095Y-49214761D02*
X70748571Y-49119523D01*
X70748571Y-49119523D02*
X70843809Y-49024285D01*
X71510476Y-47881428D02*
X72272380Y-47881428D01*
X71796190Y-47214761D02*
X71796190Y-48929047D01*
X71796190Y-48929047D02*
X71891428Y-49119523D01*
X71891428Y-49119523D02*
X72081904Y-49214761D01*
X72081904Y-49214761D02*
X72272380Y-49214761D01*
X72939047Y-47881428D02*
X72939047Y-49881428D01*
X72939047Y-47976666D02*
X73129523Y-47881428D01*
X73129523Y-47881428D02*
X73510476Y-47881428D01*
X73510476Y-47881428D02*
X73700952Y-47976666D01*
X73700952Y-47976666D02*
X73796190Y-48071904D01*
X73796190Y-48071904D02*
X73891428Y-48262380D01*
X73891428Y-48262380D02*
X73891428Y-48833809D01*
X73891428Y-48833809D02*
X73796190Y-49024285D01*
X73796190Y-49024285D02*
X73700952Y-49119523D01*
X73700952Y-49119523D02*
X73510476Y-49214761D01*
X73510476Y-49214761D02*
X73129523Y-49214761D01*
X73129523Y-49214761D02*
X72939047Y-49119523D01*
X75605714Y-47881428D02*
X75605714Y-49214761D01*
X74748571Y-47881428D02*
X74748571Y-48929047D01*
X74748571Y-48929047D02*
X74843809Y-49119523D01*
X74843809Y-49119523D02*
X75034285Y-49214761D01*
X75034285Y-49214761D02*
X75320000Y-49214761D01*
X75320000Y-49214761D02*
X75510476Y-49119523D01*
X75510476Y-49119523D02*
X75605714Y-49024285D01*
X76272381Y-47881428D02*
X77034285Y-47881428D01*
X76558095Y-47214761D02*
X76558095Y-48929047D01*
X76558095Y-48929047D02*
X76653333Y-49119523D01*
X76653333Y-49119523D02*
X76843809Y-49214761D01*
X76843809Y-49214761D02*
X77034285Y-49214761D01*
X68081904Y-52359523D02*
X68367618Y-52454761D01*
X68367618Y-52454761D02*
X68843809Y-52454761D01*
X68843809Y-52454761D02*
X69034285Y-52359523D01*
X69034285Y-52359523D02*
X69129523Y-52264285D01*
X69129523Y-52264285D02*
X69224761Y-52073809D01*
X69224761Y-52073809D02*
X69224761Y-51883333D01*
X69224761Y-51883333D02*
X69129523Y-51692857D01*
X69129523Y-51692857D02*
X69034285Y-51597619D01*
X69034285Y-51597619D02*
X68843809Y-51502380D01*
X68843809Y-51502380D02*
X68462856Y-51407142D01*
X68462856Y-51407142D02*
X68272380Y-51311904D01*
X68272380Y-51311904D02*
X68177142Y-51216666D01*
X68177142Y-51216666D02*
X68081904Y-51026190D01*
X68081904Y-51026190D02*
X68081904Y-50835714D01*
X68081904Y-50835714D02*
X68177142Y-50645238D01*
X68177142Y-50645238D02*
X68272380Y-50550000D01*
X68272380Y-50550000D02*
X68462856Y-50454761D01*
X68462856Y-50454761D02*
X68939047Y-50454761D01*
X68939047Y-50454761D02*
X69224761Y-50550000D01*
X70843809Y-52359523D02*
X70653333Y-52454761D01*
X70653333Y-52454761D02*
X70272380Y-52454761D01*
X70272380Y-52454761D02*
X70081904Y-52359523D01*
X70081904Y-52359523D02*
X69986666Y-52169047D01*
X69986666Y-52169047D02*
X69986666Y-51407142D01*
X69986666Y-51407142D02*
X70081904Y-51216666D01*
X70081904Y-51216666D02*
X70272380Y-51121428D01*
X70272380Y-51121428D02*
X70653333Y-51121428D01*
X70653333Y-51121428D02*
X70843809Y-51216666D01*
X70843809Y-51216666D02*
X70939047Y-51407142D01*
X70939047Y-51407142D02*
X70939047Y-51597619D01*
X70939047Y-51597619D02*
X69986666Y-51788095D01*
X72081904Y-52454761D02*
X71891428Y-52359523D01*
X71891428Y-52359523D02*
X71796190Y-52169047D01*
X71796190Y-52169047D02*
X71796190Y-50454761D01*
X73605714Y-52359523D02*
X73415238Y-52454761D01*
X73415238Y-52454761D02*
X73034285Y-52454761D01*
X73034285Y-52454761D02*
X72843809Y-52359523D01*
X72843809Y-52359523D02*
X72748571Y-52169047D01*
X72748571Y-52169047D02*
X72748571Y-51407142D01*
X72748571Y-51407142D02*
X72843809Y-51216666D01*
X72843809Y-51216666D02*
X73034285Y-51121428D01*
X73034285Y-51121428D02*
X73415238Y-51121428D01*
X73415238Y-51121428D02*
X73605714Y-51216666D01*
X73605714Y-51216666D02*
X73700952Y-51407142D01*
X73700952Y-51407142D02*
X73700952Y-51597619D01*
X73700952Y-51597619D02*
X72748571Y-51788095D01*
X75415238Y-52359523D02*
X75224762Y-52454761D01*
X75224762Y-52454761D02*
X74843809Y-52454761D01*
X74843809Y-52454761D02*
X74653333Y-52359523D01*
X74653333Y-52359523D02*
X74558095Y-52264285D01*
X74558095Y-52264285D02*
X74462857Y-52073809D01*
X74462857Y-52073809D02*
X74462857Y-51502380D01*
X74462857Y-51502380D02*
X74558095Y-51311904D01*
X74558095Y-51311904D02*
X74653333Y-51216666D01*
X74653333Y-51216666D02*
X74843809Y-51121428D01*
X74843809Y-51121428D02*
X75224762Y-51121428D01*
X75224762Y-51121428D02*
X75415238Y-51216666D01*
X75986667Y-51121428D02*
X76748571Y-51121428D01*
X76272381Y-50454761D02*
X76272381Y-52169047D01*
X76272381Y-52169047D02*
X76367619Y-52359523D01*
X76367619Y-52359523D02*
X76558095Y-52454761D01*
X76558095Y-52454761D02*
X76748571Y-52454761D01*
X50920952Y-49564761D02*
X50920952Y-47564761D01*
X50920952Y-47564761D02*
X51682857Y-47564761D01*
X51682857Y-47564761D02*
X51873333Y-47660000D01*
X51873333Y-47660000D02*
X51968571Y-47755238D01*
X51968571Y-47755238D02*
X52063809Y-47945714D01*
X52063809Y-47945714D02*
X52063809Y-48231428D01*
X52063809Y-48231428D02*
X51968571Y-48421904D01*
X51968571Y-48421904D02*
X51873333Y-48517142D01*
X51873333Y-48517142D02*
X51682857Y-48612380D01*
X51682857Y-48612380D02*
X50920952Y-48612380D01*
X53778095Y-48231428D02*
X53778095Y-49564761D01*
X52920952Y-48231428D02*
X52920952Y-49279047D01*
X52920952Y-49279047D02*
X53016190Y-49469523D01*
X53016190Y-49469523D02*
X53206666Y-49564761D01*
X53206666Y-49564761D02*
X53492381Y-49564761D01*
X53492381Y-49564761D02*
X53682857Y-49469523D01*
X53682857Y-49469523D02*
X53778095Y-49374285D01*
X55016190Y-49564761D02*
X54825714Y-49469523D01*
X54825714Y-49469523D02*
X54730476Y-49279047D01*
X54730476Y-49279047D02*
X54730476Y-47564761D01*
X55682857Y-49469523D02*
X55873333Y-49564761D01*
X55873333Y-49564761D02*
X56254285Y-49564761D01*
X56254285Y-49564761D02*
X56444762Y-49469523D01*
X56444762Y-49469523D02*
X56540000Y-49279047D01*
X56540000Y-49279047D02*
X56540000Y-49183809D01*
X56540000Y-49183809D02*
X56444762Y-48993333D01*
X56444762Y-48993333D02*
X56254285Y-48898095D01*
X56254285Y-48898095D02*
X55968571Y-48898095D01*
X55968571Y-48898095D02*
X55778095Y-48802857D01*
X55778095Y-48802857D02*
X55682857Y-48612380D01*
X55682857Y-48612380D02*
X55682857Y-48517142D01*
X55682857Y-48517142D02*
X55778095Y-48326666D01*
X55778095Y-48326666D02*
X55968571Y-48231428D01*
X55968571Y-48231428D02*
X56254285Y-48231428D01*
X56254285Y-48231428D02*
X56444762Y-48326666D01*
X58159048Y-49469523D02*
X57968572Y-49564761D01*
X57968572Y-49564761D02*
X57587619Y-49564761D01*
X57587619Y-49564761D02*
X57397143Y-49469523D01*
X57397143Y-49469523D02*
X57301905Y-49279047D01*
X57301905Y-49279047D02*
X57301905Y-48517142D01*
X57301905Y-48517142D02*
X57397143Y-48326666D01*
X57397143Y-48326666D02*
X57587619Y-48231428D01*
X57587619Y-48231428D02*
X57968572Y-48231428D01*
X57968572Y-48231428D02*
X58159048Y-48326666D01*
X58159048Y-48326666D02*
X58254286Y-48517142D01*
X58254286Y-48517142D02*
X58254286Y-48707619D01*
X58254286Y-48707619D02*
X57301905Y-48898095D01*
X83924761Y-40007619D02*
X83924761Y-39626666D01*
X83924761Y-39626666D02*
X84020000Y-39436190D01*
X84020000Y-39436190D02*
X84210476Y-39245714D01*
X84210476Y-39245714D02*
X84591428Y-39150476D01*
X84591428Y-39150476D02*
X85258095Y-39150476D01*
X85258095Y-39150476D02*
X85639047Y-39245714D01*
X85639047Y-39245714D02*
X85829523Y-39436190D01*
X85829523Y-39436190D02*
X85924761Y-39626666D01*
X85924761Y-39626666D02*
X85924761Y-40007619D01*
X85924761Y-40007619D02*
X85829523Y-40198095D01*
X85829523Y-40198095D02*
X85639047Y-40388571D01*
X85639047Y-40388571D02*
X85258095Y-40483809D01*
X85258095Y-40483809D02*
X84591428Y-40483809D01*
X84591428Y-40483809D02*
X84210476Y-40388571D01*
X84210476Y-40388571D02*
X84020000Y-40198095D01*
X84020000Y-40198095D02*
X83924761Y-40007619D01*
X84591428Y-37436190D02*
X85924761Y-37436190D01*
X84591428Y-38293333D02*
X85639047Y-38293333D01*
X85639047Y-38293333D02*
X85829523Y-38198095D01*
X85829523Y-38198095D02*
X85924761Y-38007619D01*
X85924761Y-38007619D02*
X85924761Y-37721904D01*
X85924761Y-37721904D02*
X85829523Y-37531428D01*
X85829523Y-37531428D02*
X85734285Y-37436190D01*
X84591428Y-36769523D02*
X84591428Y-36007619D01*
X83924761Y-36483809D02*
X85639047Y-36483809D01*
X85639047Y-36483809D02*
X85829523Y-36388571D01*
X85829523Y-36388571D02*
X85924761Y-36198095D01*
X85924761Y-36198095D02*
X85924761Y-36007619D01*
X84591428Y-35340952D02*
X86591428Y-35340952D01*
X84686666Y-35340952D02*
X84591428Y-35150476D01*
X84591428Y-35150476D02*
X84591428Y-34769523D01*
X84591428Y-34769523D02*
X84686666Y-34579047D01*
X84686666Y-34579047D02*
X84781904Y-34483809D01*
X84781904Y-34483809D02*
X84972380Y-34388571D01*
X84972380Y-34388571D02*
X85543809Y-34388571D01*
X85543809Y-34388571D02*
X85734285Y-34483809D01*
X85734285Y-34483809D02*
X85829523Y-34579047D01*
X85829523Y-34579047D02*
X85924761Y-34769523D01*
X85924761Y-34769523D02*
X85924761Y-35150476D01*
X85924761Y-35150476D02*
X85829523Y-35340952D01*
X84591428Y-32674285D02*
X85924761Y-32674285D01*
X84591428Y-33531428D02*
X85639047Y-33531428D01*
X85639047Y-33531428D02*
X85829523Y-33436190D01*
X85829523Y-33436190D02*
X85924761Y-33245714D01*
X85924761Y-33245714D02*
X85924761Y-32959999D01*
X85924761Y-32959999D02*
X85829523Y-32769523D01*
X85829523Y-32769523D02*
X85734285Y-32674285D01*
X84591428Y-32007618D02*
X84591428Y-31245714D01*
X83924761Y-31721904D02*
X85639047Y-31721904D01*
X85639047Y-31721904D02*
X85829523Y-31626666D01*
X85829523Y-31626666D02*
X85924761Y-31436190D01*
X85924761Y-31436190D02*
X85924761Y-31245714D01*
D13*
%TO.C,R9*%
X48583333Y-18622380D02*
X48250000Y-18146190D01*
X48011905Y-18622380D02*
X48011905Y-17622380D01*
X48011905Y-17622380D02*
X48392857Y-17622380D01*
X48392857Y-17622380D02*
X48488095Y-17670000D01*
X48488095Y-17670000D02*
X48535714Y-17717619D01*
X48535714Y-17717619D02*
X48583333Y-17812857D01*
X48583333Y-17812857D02*
X48583333Y-17955714D01*
X48583333Y-17955714D02*
X48535714Y-18050952D01*
X48535714Y-18050952D02*
X48488095Y-18098571D01*
X48488095Y-18098571D02*
X48392857Y-18146190D01*
X48392857Y-18146190D02*
X48011905Y-18146190D01*
X49059524Y-18622380D02*
X49250000Y-18622380D01*
X49250000Y-18622380D02*
X49345238Y-18574761D01*
X49345238Y-18574761D02*
X49392857Y-18527142D01*
X49392857Y-18527142D02*
X49488095Y-18384285D01*
X49488095Y-18384285D02*
X49535714Y-18193809D01*
X49535714Y-18193809D02*
X49535714Y-17812857D01*
X49535714Y-17812857D02*
X49488095Y-17717619D01*
X49488095Y-17717619D02*
X49440476Y-17670000D01*
X49440476Y-17670000D02*
X49345238Y-17622380D01*
X49345238Y-17622380D02*
X49154762Y-17622380D01*
X49154762Y-17622380D02*
X49059524Y-17670000D01*
X49059524Y-17670000D02*
X49011905Y-17717619D01*
X49011905Y-17717619D02*
X48964286Y-17812857D01*
X48964286Y-17812857D02*
X48964286Y-18050952D01*
X48964286Y-18050952D02*
X49011905Y-18146190D01*
X49011905Y-18146190D02*
X49059524Y-18193809D01*
X49059524Y-18193809D02*
X49154762Y-18241428D01*
X49154762Y-18241428D02*
X49345238Y-18241428D01*
X49345238Y-18241428D02*
X49440476Y-18193809D01*
X49440476Y-18193809D02*
X49488095Y-18146190D01*
X49488095Y-18146190D02*
X49535714Y-18050952D01*
%TO.C,SW2*%
X70732667Y-38269761D02*
X70875524Y-38317380D01*
X70875524Y-38317380D02*
X71113619Y-38317380D01*
X71113619Y-38317380D02*
X71208857Y-38269761D01*
X71208857Y-38269761D02*
X71256476Y-38222142D01*
X71256476Y-38222142D02*
X71304095Y-38126904D01*
X71304095Y-38126904D02*
X71304095Y-38031666D01*
X71304095Y-38031666D02*
X71256476Y-37936428D01*
X71256476Y-37936428D02*
X71208857Y-37888809D01*
X71208857Y-37888809D02*
X71113619Y-37841190D01*
X71113619Y-37841190D02*
X70923143Y-37793571D01*
X70923143Y-37793571D02*
X70827905Y-37745952D01*
X70827905Y-37745952D02*
X70780286Y-37698333D01*
X70780286Y-37698333D02*
X70732667Y-37603095D01*
X70732667Y-37603095D02*
X70732667Y-37507857D01*
X70732667Y-37507857D02*
X70780286Y-37412619D01*
X70780286Y-37412619D02*
X70827905Y-37365000D01*
X70827905Y-37365000D02*
X70923143Y-37317380D01*
X70923143Y-37317380D02*
X71161238Y-37317380D01*
X71161238Y-37317380D02*
X71304095Y-37365000D01*
X71637429Y-37317380D02*
X71875524Y-38317380D01*
X71875524Y-38317380D02*
X72066000Y-37603095D01*
X72066000Y-37603095D02*
X72256476Y-38317380D01*
X72256476Y-38317380D02*
X72494572Y-37317380D01*
X72827905Y-37412619D02*
X72875524Y-37365000D01*
X72875524Y-37365000D02*
X72970762Y-37317380D01*
X72970762Y-37317380D02*
X73208857Y-37317380D01*
X73208857Y-37317380D02*
X73304095Y-37365000D01*
X73304095Y-37365000D02*
X73351714Y-37412619D01*
X73351714Y-37412619D02*
X73399333Y-37507857D01*
X73399333Y-37507857D02*
X73399333Y-37603095D01*
X73399333Y-37603095D02*
X73351714Y-37745952D01*
X73351714Y-37745952D02*
X72780286Y-38317380D01*
X72780286Y-38317380D02*
X73399333Y-38317380D01*
%TO.C,U3*%
X8058095Y-10092380D02*
X8058095Y-10901904D01*
X8058095Y-10901904D02*
X8105714Y-10997142D01*
X8105714Y-10997142D02*
X8153333Y-11044761D01*
X8153333Y-11044761D02*
X8248571Y-11092380D01*
X8248571Y-11092380D02*
X8439047Y-11092380D01*
X8439047Y-11092380D02*
X8534285Y-11044761D01*
X8534285Y-11044761D02*
X8581904Y-10997142D01*
X8581904Y-10997142D02*
X8629523Y-10901904D01*
X8629523Y-10901904D02*
X8629523Y-10092380D01*
X9010476Y-10092380D02*
X9629523Y-10092380D01*
X9629523Y-10092380D02*
X9296190Y-10473333D01*
X9296190Y-10473333D02*
X9439047Y-10473333D01*
X9439047Y-10473333D02*
X9534285Y-10520952D01*
X9534285Y-10520952D02*
X9581904Y-10568571D01*
X9581904Y-10568571D02*
X9629523Y-10663809D01*
X9629523Y-10663809D02*
X9629523Y-10901904D01*
X9629523Y-10901904D02*
X9581904Y-10997142D01*
X9581904Y-10997142D02*
X9534285Y-11044761D01*
X9534285Y-11044761D02*
X9439047Y-11092380D01*
X9439047Y-11092380D02*
X9153333Y-11092380D01*
X9153333Y-11092380D02*
X9058095Y-11044761D01*
X9058095Y-11044761D02*
X9010476Y-10997142D01*
%TO.C,C2*%
X15638333Y-5710142D02*
X15590714Y-5757761D01*
X15590714Y-5757761D02*
X15447857Y-5805380D01*
X15447857Y-5805380D02*
X15352619Y-5805380D01*
X15352619Y-5805380D02*
X15209762Y-5757761D01*
X15209762Y-5757761D02*
X15114524Y-5662523D01*
X15114524Y-5662523D02*
X15066905Y-5567285D01*
X15066905Y-5567285D02*
X15019286Y-5376809D01*
X15019286Y-5376809D02*
X15019286Y-5233952D01*
X15019286Y-5233952D02*
X15066905Y-5043476D01*
X15066905Y-5043476D02*
X15114524Y-4948238D01*
X15114524Y-4948238D02*
X15209762Y-4853000D01*
X15209762Y-4853000D02*
X15352619Y-4805380D01*
X15352619Y-4805380D02*
X15447857Y-4805380D01*
X15447857Y-4805380D02*
X15590714Y-4853000D01*
X15590714Y-4853000D02*
X15638333Y-4900619D01*
X16019286Y-4900619D02*
X16066905Y-4853000D01*
X16066905Y-4853000D02*
X16162143Y-4805380D01*
X16162143Y-4805380D02*
X16400238Y-4805380D01*
X16400238Y-4805380D02*
X16495476Y-4853000D01*
X16495476Y-4853000D02*
X16543095Y-4900619D01*
X16543095Y-4900619D02*
X16590714Y-4995857D01*
X16590714Y-4995857D02*
X16590714Y-5091095D01*
X16590714Y-5091095D02*
X16543095Y-5233952D01*
X16543095Y-5233952D02*
X15971667Y-5805380D01*
X15971667Y-5805380D02*
X16590714Y-5805380D01*
%TO.C,D2*%
X33481905Y-34482380D02*
X33481905Y-33482380D01*
X33481905Y-33482380D02*
X33720000Y-33482380D01*
X33720000Y-33482380D02*
X33862857Y-33530000D01*
X33862857Y-33530000D02*
X33958095Y-33625238D01*
X33958095Y-33625238D02*
X34005714Y-33720476D01*
X34005714Y-33720476D02*
X34053333Y-33910952D01*
X34053333Y-33910952D02*
X34053333Y-34053809D01*
X34053333Y-34053809D02*
X34005714Y-34244285D01*
X34005714Y-34244285D02*
X33958095Y-34339523D01*
X33958095Y-34339523D02*
X33862857Y-34434761D01*
X33862857Y-34434761D02*
X33720000Y-34482380D01*
X33720000Y-34482380D02*
X33481905Y-34482380D01*
X34434286Y-33577619D02*
X34481905Y-33530000D01*
X34481905Y-33530000D02*
X34577143Y-33482380D01*
X34577143Y-33482380D02*
X34815238Y-33482380D01*
X34815238Y-33482380D02*
X34910476Y-33530000D01*
X34910476Y-33530000D02*
X34958095Y-33577619D01*
X34958095Y-33577619D02*
X35005714Y-33672857D01*
X35005714Y-33672857D02*
X35005714Y-33768095D01*
X35005714Y-33768095D02*
X34958095Y-33910952D01*
X34958095Y-33910952D02*
X34386667Y-34482380D01*
X34386667Y-34482380D02*
X35005714Y-34482380D01*
%TO.C,C10*%
X38637142Y-23127142D02*
X38589523Y-23174761D01*
X38589523Y-23174761D02*
X38446666Y-23222380D01*
X38446666Y-23222380D02*
X38351428Y-23222380D01*
X38351428Y-23222380D02*
X38208571Y-23174761D01*
X38208571Y-23174761D02*
X38113333Y-23079523D01*
X38113333Y-23079523D02*
X38065714Y-22984285D01*
X38065714Y-22984285D02*
X38018095Y-22793809D01*
X38018095Y-22793809D02*
X38018095Y-22650952D01*
X38018095Y-22650952D02*
X38065714Y-22460476D01*
X38065714Y-22460476D02*
X38113333Y-22365238D01*
X38113333Y-22365238D02*
X38208571Y-22270000D01*
X38208571Y-22270000D02*
X38351428Y-22222380D01*
X38351428Y-22222380D02*
X38446666Y-22222380D01*
X38446666Y-22222380D02*
X38589523Y-22270000D01*
X38589523Y-22270000D02*
X38637142Y-22317619D01*
X39589523Y-23222380D02*
X39018095Y-23222380D01*
X39303809Y-23222380D02*
X39303809Y-22222380D01*
X39303809Y-22222380D02*
X39208571Y-22365238D01*
X39208571Y-22365238D02*
X39113333Y-22460476D01*
X39113333Y-22460476D02*
X39018095Y-22508095D01*
X40208571Y-22222380D02*
X40303809Y-22222380D01*
X40303809Y-22222380D02*
X40399047Y-22270000D01*
X40399047Y-22270000D02*
X40446666Y-22317619D01*
X40446666Y-22317619D02*
X40494285Y-22412857D01*
X40494285Y-22412857D02*
X40541904Y-22603333D01*
X40541904Y-22603333D02*
X40541904Y-22841428D01*
X40541904Y-22841428D02*
X40494285Y-23031904D01*
X40494285Y-23031904D02*
X40446666Y-23127142D01*
X40446666Y-23127142D02*
X40399047Y-23174761D01*
X40399047Y-23174761D02*
X40303809Y-23222380D01*
X40303809Y-23222380D02*
X40208571Y-23222380D01*
X40208571Y-23222380D02*
X40113333Y-23174761D01*
X40113333Y-23174761D02*
X40065714Y-23127142D01*
X40065714Y-23127142D02*
X40018095Y-23031904D01*
X40018095Y-23031904D02*
X39970476Y-22841428D01*
X39970476Y-22841428D02*
X39970476Y-22603333D01*
X39970476Y-22603333D02*
X40018095Y-22412857D01*
X40018095Y-22412857D02*
X40065714Y-22317619D01*
X40065714Y-22317619D02*
X40113333Y-22270000D01*
X40113333Y-22270000D02*
X40208571Y-22222380D01*
%TO.C,R10*%
X56607142Y-22347380D02*
X56273809Y-21871190D01*
X56035714Y-22347380D02*
X56035714Y-21347380D01*
X56035714Y-21347380D02*
X56416666Y-21347380D01*
X56416666Y-21347380D02*
X56511904Y-21395000D01*
X56511904Y-21395000D02*
X56559523Y-21442619D01*
X56559523Y-21442619D02*
X56607142Y-21537857D01*
X56607142Y-21537857D02*
X56607142Y-21680714D01*
X56607142Y-21680714D02*
X56559523Y-21775952D01*
X56559523Y-21775952D02*
X56511904Y-21823571D01*
X56511904Y-21823571D02*
X56416666Y-21871190D01*
X56416666Y-21871190D02*
X56035714Y-21871190D01*
X57559523Y-22347380D02*
X56988095Y-22347380D01*
X57273809Y-22347380D02*
X57273809Y-21347380D01*
X57273809Y-21347380D02*
X57178571Y-21490238D01*
X57178571Y-21490238D02*
X57083333Y-21585476D01*
X57083333Y-21585476D02*
X56988095Y-21633095D01*
X58178571Y-21347380D02*
X58273809Y-21347380D01*
X58273809Y-21347380D02*
X58369047Y-21395000D01*
X58369047Y-21395000D02*
X58416666Y-21442619D01*
X58416666Y-21442619D02*
X58464285Y-21537857D01*
X58464285Y-21537857D02*
X58511904Y-21728333D01*
X58511904Y-21728333D02*
X58511904Y-21966428D01*
X58511904Y-21966428D02*
X58464285Y-22156904D01*
X58464285Y-22156904D02*
X58416666Y-22252142D01*
X58416666Y-22252142D02*
X58369047Y-22299761D01*
X58369047Y-22299761D02*
X58273809Y-22347380D01*
X58273809Y-22347380D02*
X58178571Y-22347380D01*
X58178571Y-22347380D02*
X58083333Y-22299761D01*
X58083333Y-22299761D02*
X58035714Y-22252142D01*
X58035714Y-22252142D02*
X57988095Y-22156904D01*
X57988095Y-22156904D02*
X57940476Y-21966428D01*
X57940476Y-21966428D02*
X57940476Y-21728333D01*
X57940476Y-21728333D02*
X57988095Y-21537857D01*
X57988095Y-21537857D02*
X58035714Y-21442619D01*
X58035714Y-21442619D02*
X58083333Y-21395000D01*
X58083333Y-21395000D02*
X58178571Y-21347380D01*
%TO.C,J3*%
X14201666Y-49567380D02*
X14201666Y-50281666D01*
X14201666Y-50281666D02*
X14154047Y-50424523D01*
X14154047Y-50424523D02*
X14058809Y-50519761D01*
X14058809Y-50519761D02*
X13915952Y-50567380D01*
X13915952Y-50567380D02*
X13820714Y-50567380D01*
X14582619Y-49567380D02*
X15201666Y-49567380D01*
X15201666Y-49567380D02*
X14868333Y-49948333D01*
X14868333Y-49948333D02*
X15011190Y-49948333D01*
X15011190Y-49948333D02*
X15106428Y-49995952D01*
X15106428Y-49995952D02*
X15154047Y-50043571D01*
X15154047Y-50043571D02*
X15201666Y-50138809D01*
X15201666Y-50138809D02*
X15201666Y-50376904D01*
X15201666Y-50376904D02*
X15154047Y-50472142D01*
X15154047Y-50472142D02*
X15106428Y-50519761D01*
X15106428Y-50519761D02*
X15011190Y-50567380D01*
X15011190Y-50567380D02*
X14725476Y-50567380D01*
X14725476Y-50567380D02*
X14630238Y-50519761D01*
X14630238Y-50519761D02*
X14582619Y-50472142D01*
%TO.C,C5*%
X23923333Y-3942142D02*
X23875714Y-3989761D01*
X23875714Y-3989761D02*
X23732857Y-4037380D01*
X23732857Y-4037380D02*
X23637619Y-4037380D01*
X23637619Y-4037380D02*
X23494762Y-3989761D01*
X23494762Y-3989761D02*
X23399524Y-3894523D01*
X23399524Y-3894523D02*
X23351905Y-3799285D01*
X23351905Y-3799285D02*
X23304286Y-3608809D01*
X23304286Y-3608809D02*
X23304286Y-3465952D01*
X23304286Y-3465952D02*
X23351905Y-3275476D01*
X23351905Y-3275476D02*
X23399524Y-3180238D01*
X23399524Y-3180238D02*
X23494762Y-3085000D01*
X23494762Y-3085000D02*
X23637619Y-3037380D01*
X23637619Y-3037380D02*
X23732857Y-3037380D01*
X23732857Y-3037380D02*
X23875714Y-3085000D01*
X23875714Y-3085000D02*
X23923333Y-3132619D01*
X24828095Y-3037380D02*
X24351905Y-3037380D01*
X24351905Y-3037380D02*
X24304286Y-3513571D01*
X24304286Y-3513571D02*
X24351905Y-3465952D01*
X24351905Y-3465952D02*
X24447143Y-3418333D01*
X24447143Y-3418333D02*
X24685238Y-3418333D01*
X24685238Y-3418333D02*
X24780476Y-3465952D01*
X24780476Y-3465952D02*
X24828095Y-3513571D01*
X24828095Y-3513571D02*
X24875714Y-3608809D01*
X24875714Y-3608809D02*
X24875714Y-3846904D01*
X24875714Y-3846904D02*
X24828095Y-3942142D01*
X24828095Y-3942142D02*
X24780476Y-3989761D01*
X24780476Y-3989761D02*
X24685238Y-4037380D01*
X24685238Y-4037380D02*
X24447143Y-4037380D01*
X24447143Y-4037380D02*
X24351905Y-3989761D01*
X24351905Y-3989761D02*
X24304286Y-3942142D01*
%TO.C,R6*%
X35333333Y-19952380D02*
X35000000Y-19476190D01*
X34761905Y-19952380D02*
X34761905Y-18952380D01*
X34761905Y-18952380D02*
X35142857Y-18952380D01*
X35142857Y-18952380D02*
X35238095Y-19000000D01*
X35238095Y-19000000D02*
X35285714Y-19047619D01*
X35285714Y-19047619D02*
X35333333Y-19142857D01*
X35333333Y-19142857D02*
X35333333Y-19285714D01*
X35333333Y-19285714D02*
X35285714Y-19380952D01*
X35285714Y-19380952D02*
X35238095Y-19428571D01*
X35238095Y-19428571D02*
X35142857Y-19476190D01*
X35142857Y-19476190D02*
X34761905Y-19476190D01*
X36190476Y-18952380D02*
X36000000Y-18952380D01*
X36000000Y-18952380D02*
X35904762Y-19000000D01*
X35904762Y-19000000D02*
X35857143Y-19047619D01*
X35857143Y-19047619D02*
X35761905Y-19190476D01*
X35761905Y-19190476D02*
X35714286Y-19380952D01*
X35714286Y-19380952D02*
X35714286Y-19761904D01*
X35714286Y-19761904D02*
X35761905Y-19857142D01*
X35761905Y-19857142D02*
X35809524Y-19904761D01*
X35809524Y-19904761D02*
X35904762Y-19952380D01*
X35904762Y-19952380D02*
X36095238Y-19952380D01*
X36095238Y-19952380D02*
X36190476Y-19904761D01*
X36190476Y-19904761D02*
X36238095Y-19857142D01*
X36238095Y-19857142D02*
X36285714Y-19761904D01*
X36285714Y-19761904D02*
X36285714Y-19523809D01*
X36285714Y-19523809D02*
X36238095Y-19428571D01*
X36238095Y-19428571D02*
X36190476Y-19380952D01*
X36190476Y-19380952D02*
X36095238Y-19333333D01*
X36095238Y-19333333D02*
X35904762Y-19333333D01*
X35904762Y-19333333D02*
X35809524Y-19380952D01*
X35809524Y-19380952D02*
X35761905Y-19428571D01*
X35761905Y-19428571D02*
X35714286Y-19523809D01*
%TO.C,C3*%
X11333333Y-35107142D02*
X11285714Y-35154761D01*
X11285714Y-35154761D02*
X11142857Y-35202380D01*
X11142857Y-35202380D02*
X11047619Y-35202380D01*
X11047619Y-35202380D02*
X10904762Y-35154761D01*
X10904762Y-35154761D02*
X10809524Y-35059523D01*
X10809524Y-35059523D02*
X10761905Y-34964285D01*
X10761905Y-34964285D02*
X10714286Y-34773809D01*
X10714286Y-34773809D02*
X10714286Y-34630952D01*
X10714286Y-34630952D02*
X10761905Y-34440476D01*
X10761905Y-34440476D02*
X10809524Y-34345238D01*
X10809524Y-34345238D02*
X10904762Y-34250000D01*
X10904762Y-34250000D02*
X11047619Y-34202380D01*
X11047619Y-34202380D02*
X11142857Y-34202380D01*
X11142857Y-34202380D02*
X11285714Y-34250000D01*
X11285714Y-34250000D02*
X11333333Y-34297619D01*
X11666667Y-34202380D02*
X12285714Y-34202380D01*
X12285714Y-34202380D02*
X11952381Y-34583333D01*
X11952381Y-34583333D02*
X12095238Y-34583333D01*
X12095238Y-34583333D02*
X12190476Y-34630952D01*
X12190476Y-34630952D02*
X12238095Y-34678571D01*
X12238095Y-34678571D02*
X12285714Y-34773809D01*
X12285714Y-34773809D02*
X12285714Y-35011904D01*
X12285714Y-35011904D02*
X12238095Y-35107142D01*
X12238095Y-35107142D02*
X12190476Y-35154761D01*
X12190476Y-35154761D02*
X12095238Y-35202380D01*
X12095238Y-35202380D02*
X11809524Y-35202380D01*
X11809524Y-35202380D02*
X11714286Y-35154761D01*
X11714286Y-35154761D02*
X11666667Y-35107142D01*
%TO.C,U6*%
X34738095Y-6466380D02*
X34738095Y-7275904D01*
X34738095Y-7275904D02*
X34785714Y-7371142D01*
X34785714Y-7371142D02*
X34833333Y-7418761D01*
X34833333Y-7418761D02*
X34928571Y-7466380D01*
X34928571Y-7466380D02*
X35119047Y-7466380D01*
X35119047Y-7466380D02*
X35214285Y-7418761D01*
X35214285Y-7418761D02*
X35261904Y-7371142D01*
X35261904Y-7371142D02*
X35309523Y-7275904D01*
X35309523Y-7275904D02*
X35309523Y-6466380D01*
X36214285Y-6466380D02*
X36023809Y-6466380D01*
X36023809Y-6466380D02*
X35928571Y-6514000D01*
X35928571Y-6514000D02*
X35880952Y-6561619D01*
X35880952Y-6561619D02*
X35785714Y-6704476D01*
X35785714Y-6704476D02*
X35738095Y-6894952D01*
X35738095Y-6894952D02*
X35738095Y-7275904D01*
X35738095Y-7275904D02*
X35785714Y-7371142D01*
X35785714Y-7371142D02*
X35833333Y-7418761D01*
X35833333Y-7418761D02*
X35928571Y-7466380D01*
X35928571Y-7466380D02*
X36119047Y-7466380D01*
X36119047Y-7466380D02*
X36214285Y-7418761D01*
X36214285Y-7418761D02*
X36261904Y-7371142D01*
X36261904Y-7371142D02*
X36309523Y-7275904D01*
X36309523Y-7275904D02*
X36309523Y-7037809D01*
X36309523Y-7037809D02*
X36261904Y-6942571D01*
X36261904Y-6942571D02*
X36214285Y-6894952D01*
X36214285Y-6894952D02*
X36119047Y-6847333D01*
X36119047Y-6847333D02*
X35928571Y-6847333D01*
X35928571Y-6847333D02*
X35833333Y-6894952D01*
X35833333Y-6894952D02*
X35785714Y-6942571D01*
X35785714Y-6942571D02*
X35738095Y-7037809D01*
%TO.C,R7*%
X49293333Y-4012380D02*
X48960000Y-3536190D01*
X48721905Y-4012380D02*
X48721905Y-3012380D01*
X48721905Y-3012380D02*
X49102857Y-3012380D01*
X49102857Y-3012380D02*
X49198095Y-3060000D01*
X49198095Y-3060000D02*
X49245714Y-3107619D01*
X49245714Y-3107619D02*
X49293333Y-3202857D01*
X49293333Y-3202857D02*
X49293333Y-3345714D01*
X49293333Y-3345714D02*
X49245714Y-3440952D01*
X49245714Y-3440952D02*
X49198095Y-3488571D01*
X49198095Y-3488571D02*
X49102857Y-3536190D01*
X49102857Y-3536190D02*
X48721905Y-3536190D01*
X49626667Y-3012380D02*
X50293333Y-3012380D01*
X50293333Y-3012380D02*
X49864762Y-4012380D01*
%TO.C,C8*%
X82347142Y-42456666D02*
X82394761Y-42504285D01*
X82394761Y-42504285D02*
X82442380Y-42647142D01*
X82442380Y-42647142D02*
X82442380Y-42742380D01*
X82442380Y-42742380D02*
X82394761Y-42885237D01*
X82394761Y-42885237D02*
X82299523Y-42980475D01*
X82299523Y-42980475D02*
X82204285Y-43028094D01*
X82204285Y-43028094D02*
X82013809Y-43075713D01*
X82013809Y-43075713D02*
X81870952Y-43075713D01*
X81870952Y-43075713D02*
X81680476Y-43028094D01*
X81680476Y-43028094D02*
X81585238Y-42980475D01*
X81585238Y-42980475D02*
X81490000Y-42885237D01*
X81490000Y-42885237D02*
X81442380Y-42742380D01*
X81442380Y-42742380D02*
X81442380Y-42647142D01*
X81442380Y-42647142D02*
X81490000Y-42504285D01*
X81490000Y-42504285D02*
X81537619Y-42456666D01*
X81870952Y-41885237D02*
X81823333Y-41980475D01*
X81823333Y-41980475D02*
X81775714Y-42028094D01*
X81775714Y-42028094D02*
X81680476Y-42075713D01*
X81680476Y-42075713D02*
X81632857Y-42075713D01*
X81632857Y-42075713D02*
X81537619Y-42028094D01*
X81537619Y-42028094D02*
X81490000Y-41980475D01*
X81490000Y-41980475D02*
X81442380Y-41885237D01*
X81442380Y-41885237D02*
X81442380Y-41694761D01*
X81442380Y-41694761D02*
X81490000Y-41599523D01*
X81490000Y-41599523D02*
X81537619Y-41551904D01*
X81537619Y-41551904D02*
X81632857Y-41504285D01*
X81632857Y-41504285D02*
X81680476Y-41504285D01*
X81680476Y-41504285D02*
X81775714Y-41551904D01*
X81775714Y-41551904D02*
X81823333Y-41599523D01*
X81823333Y-41599523D02*
X81870952Y-41694761D01*
X81870952Y-41694761D02*
X81870952Y-41885237D01*
X81870952Y-41885237D02*
X81918571Y-41980475D01*
X81918571Y-41980475D02*
X81966190Y-42028094D01*
X81966190Y-42028094D02*
X82061428Y-42075713D01*
X82061428Y-42075713D02*
X82251904Y-42075713D01*
X82251904Y-42075713D02*
X82347142Y-42028094D01*
X82347142Y-42028094D02*
X82394761Y-41980475D01*
X82394761Y-41980475D02*
X82442380Y-41885237D01*
X82442380Y-41885237D02*
X82442380Y-41694761D01*
X82442380Y-41694761D02*
X82394761Y-41599523D01*
X82394761Y-41599523D02*
X82347142Y-41551904D01*
X82347142Y-41551904D02*
X82251904Y-41504285D01*
X82251904Y-41504285D02*
X82061428Y-41504285D01*
X82061428Y-41504285D02*
X81966190Y-41551904D01*
X81966190Y-41551904D02*
X81918571Y-41599523D01*
X81918571Y-41599523D02*
X81870952Y-41694761D01*
%TO.C,R2*%
X15333333Y-18952380D02*
X15000000Y-18476190D01*
X14761905Y-18952380D02*
X14761905Y-17952380D01*
X14761905Y-17952380D02*
X15142857Y-17952380D01*
X15142857Y-17952380D02*
X15238095Y-18000000D01*
X15238095Y-18000000D02*
X15285714Y-18047619D01*
X15285714Y-18047619D02*
X15333333Y-18142857D01*
X15333333Y-18142857D02*
X15333333Y-18285714D01*
X15333333Y-18285714D02*
X15285714Y-18380952D01*
X15285714Y-18380952D02*
X15238095Y-18428571D01*
X15238095Y-18428571D02*
X15142857Y-18476190D01*
X15142857Y-18476190D02*
X14761905Y-18476190D01*
X15714286Y-18047619D02*
X15761905Y-18000000D01*
X15761905Y-18000000D02*
X15857143Y-17952380D01*
X15857143Y-17952380D02*
X16095238Y-17952380D01*
X16095238Y-17952380D02*
X16190476Y-18000000D01*
X16190476Y-18000000D02*
X16238095Y-18047619D01*
X16238095Y-18047619D02*
X16285714Y-18142857D01*
X16285714Y-18142857D02*
X16285714Y-18238095D01*
X16285714Y-18238095D02*
X16238095Y-18380952D01*
X16238095Y-18380952D02*
X15666667Y-18952380D01*
X15666667Y-18952380D02*
X16285714Y-18952380D01*
%TO.C,R4*%
X82333333Y-23937380D02*
X82000000Y-23461190D01*
X81761905Y-23937380D02*
X81761905Y-22937380D01*
X81761905Y-22937380D02*
X82142857Y-22937380D01*
X82142857Y-22937380D02*
X82238095Y-22985000D01*
X82238095Y-22985000D02*
X82285714Y-23032619D01*
X82285714Y-23032619D02*
X82333333Y-23127857D01*
X82333333Y-23127857D02*
X82333333Y-23270714D01*
X82333333Y-23270714D02*
X82285714Y-23365952D01*
X82285714Y-23365952D02*
X82238095Y-23413571D01*
X82238095Y-23413571D02*
X82142857Y-23461190D01*
X82142857Y-23461190D02*
X81761905Y-23461190D01*
X83190476Y-23270714D02*
X83190476Y-23937380D01*
X82952381Y-22889761D02*
X82714286Y-23604047D01*
X82714286Y-23604047D02*
X83333333Y-23604047D01*
%TO.C,J1*%
X17376666Y-30737380D02*
X17376666Y-31451666D01*
X17376666Y-31451666D02*
X17329047Y-31594523D01*
X17329047Y-31594523D02*
X17233809Y-31689761D01*
X17233809Y-31689761D02*
X17090952Y-31737380D01*
X17090952Y-31737380D02*
X16995714Y-31737380D01*
X18376666Y-31737380D02*
X17805238Y-31737380D01*
X18090952Y-31737380D02*
X18090952Y-30737380D01*
X18090952Y-30737380D02*
X17995714Y-30880238D01*
X17995714Y-30880238D02*
X17900476Y-30975476D01*
X17900476Y-30975476D02*
X17805238Y-31023095D01*
%TO.C,C9*%
X71391333Y-3932142D02*
X71343714Y-3979761D01*
X71343714Y-3979761D02*
X71200857Y-4027380D01*
X71200857Y-4027380D02*
X71105619Y-4027380D01*
X71105619Y-4027380D02*
X70962762Y-3979761D01*
X70962762Y-3979761D02*
X70867524Y-3884523D01*
X70867524Y-3884523D02*
X70819905Y-3789285D01*
X70819905Y-3789285D02*
X70772286Y-3598809D01*
X70772286Y-3598809D02*
X70772286Y-3455952D01*
X70772286Y-3455952D02*
X70819905Y-3265476D01*
X70819905Y-3265476D02*
X70867524Y-3170238D01*
X70867524Y-3170238D02*
X70962762Y-3075000D01*
X70962762Y-3075000D02*
X71105619Y-3027380D01*
X71105619Y-3027380D02*
X71200857Y-3027380D01*
X71200857Y-3027380D02*
X71343714Y-3075000D01*
X71343714Y-3075000D02*
X71391333Y-3122619D01*
X71867524Y-4027380D02*
X72058000Y-4027380D01*
X72058000Y-4027380D02*
X72153238Y-3979761D01*
X72153238Y-3979761D02*
X72200857Y-3932142D01*
X72200857Y-3932142D02*
X72296095Y-3789285D01*
X72296095Y-3789285D02*
X72343714Y-3598809D01*
X72343714Y-3598809D02*
X72343714Y-3217857D01*
X72343714Y-3217857D02*
X72296095Y-3122619D01*
X72296095Y-3122619D02*
X72248476Y-3075000D01*
X72248476Y-3075000D02*
X72153238Y-3027380D01*
X72153238Y-3027380D02*
X71962762Y-3027380D01*
X71962762Y-3027380D02*
X71867524Y-3075000D01*
X71867524Y-3075000D02*
X71819905Y-3122619D01*
X71819905Y-3122619D02*
X71772286Y-3217857D01*
X71772286Y-3217857D02*
X71772286Y-3455952D01*
X71772286Y-3455952D02*
X71819905Y-3551190D01*
X71819905Y-3551190D02*
X71867524Y-3598809D01*
X71867524Y-3598809D02*
X71962762Y-3646428D01*
X71962762Y-3646428D02*
X72153238Y-3646428D01*
X72153238Y-3646428D02*
X72248476Y-3598809D01*
X72248476Y-3598809D02*
X72296095Y-3551190D01*
X72296095Y-3551190D02*
X72343714Y-3455952D01*
%TO.C,U7*%
X49968095Y-8742380D02*
X49968095Y-9551904D01*
X49968095Y-9551904D02*
X50015714Y-9647142D01*
X50015714Y-9647142D02*
X50063333Y-9694761D01*
X50063333Y-9694761D02*
X50158571Y-9742380D01*
X50158571Y-9742380D02*
X50349047Y-9742380D01*
X50349047Y-9742380D02*
X50444285Y-9694761D01*
X50444285Y-9694761D02*
X50491904Y-9647142D01*
X50491904Y-9647142D02*
X50539523Y-9551904D01*
X50539523Y-9551904D02*
X50539523Y-8742380D01*
X50920476Y-8742380D02*
X51587142Y-8742380D01*
X51587142Y-8742380D02*
X51158571Y-9742380D01*
%TO.C,R5*%
X33452380Y-8166666D02*
X32976190Y-8499999D01*
X33452380Y-8738094D02*
X32452380Y-8738094D01*
X32452380Y-8738094D02*
X32452380Y-8357142D01*
X32452380Y-8357142D02*
X32500000Y-8261904D01*
X32500000Y-8261904D02*
X32547619Y-8214285D01*
X32547619Y-8214285D02*
X32642857Y-8166666D01*
X32642857Y-8166666D02*
X32785714Y-8166666D01*
X32785714Y-8166666D02*
X32880952Y-8214285D01*
X32880952Y-8214285D02*
X32928571Y-8261904D01*
X32928571Y-8261904D02*
X32976190Y-8357142D01*
X32976190Y-8357142D02*
X32976190Y-8738094D01*
X32452380Y-7261904D02*
X32452380Y-7738094D01*
X32452380Y-7738094D02*
X32928571Y-7785713D01*
X32928571Y-7785713D02*
X32880952Y-7738094D01*
X32880952Y-7738094D02*
X32833333Y-7642856D01*
X32833333Y-7642856D02*
X32833333Y-7404761D01*
X32833333Y-7404761D02*
X32880952Y-7309523D01*
X32880952Y-7309523D02*
X32928571Y-7261904D01*
X32928571Y-7261904D02*
X33023809Y-7214285D01*
X33023809Y-7214285D02*
X33261904Y-7214285D01*
X33261904Y-7214285D02*
X33357142Y-7261904D01*
X33357142Y-7261904D02*
X33404761Y-7309523D01*
X33404761Y-7309523D02*
X33452380Y-7404761D01*
X33452380Y-7404761D02*
X33452380Y-7642856D01*
X33452380Y-7642856D02*
X33404761Y-7738094D01*
X33404761Y-7738094D02*
X33357142Y-7785713D01*
D14*
%TO.C,RV1*%
X33326464Y-53624067D02*
X32826084Y-52909238D01*
X32468670Y-53624067D02*
X32468670Y-52122927D01*
X32468670Y-52122927D02*
X33040533Y-52122927D01*
X33040533Y-52122927D02*
X33183498Y-52194410D01*
X33183498Y-52194410D02*
X33254981Y-52265892D01*
X33254981Y-52265892D02*
X33326464Y-52408858D01*
X33326464Y-52408858D02*
X33326464Y-52623307D01*
X33326464Y-52623307D02*
X33254981Y-52766272D01*
X33254981Y-52766272D02*
X33183498Y-52837755D01*
X33183498Y-52837755D02*
X33040533Y-52909238D01*
X33040533Y-52909238D02*
X32468670Y-52909238D01*
X33755361Y-52122927D02*
X34255741Y-53624067D01*
X34255741Y-53624067D02*
X34756121Y-52122927D01*
X36042812Y-53624067D02*
X35185018Y-53624067D01*
X35613915Y-53624067D02*
X35613915Y-52122927D01*
X35613915Y-52122927D02*
X35470949Y-52337375D01*
X35470949Y-52337375D02*
X35327984Y-52480341D01*
X35327984Y-52480341D02*
X35185018Y-52551824D01*
X32468670Y-35823747D02*
X31610876Y-35823747D01*
X32039773Y-35823747D02*
X32039773Y-34322607D01*
X32039773Y-34322607D02*
X31896807Y-34537055D01*
X31896807Y-34537055D02*
X31753842Y-34680021D01*
X31753842Y-34680021D02*
X31610876Y-34751504D01*
X33397947Y-34322607D02*
X33540913Y-34322607D01*
X33540913Y-34322607D02*
X33683879Y-34394090D01*
X33683879Y-34394090D02*
X33755362Y-34465572D01*
X33755362Y-34465572D02*
X33826844Y-34608538D01*
X33826844Y-34608538D02*
X33898327Y-34894470D01*
X33898327Y-34894470D02*
X33898327Y-35251884D01*
X33898327Y-35251884D02*
X33826844Y-35537815D01*
X33826844Y-35537815D02*
X33755362Y-35680781D01*
X33755362Y-35680781D02*
X33683879Y-35752264D01*
X33683879Y-35752264D02*
X33540913Y-35823747D01*
X33540913Y-35823747D02*
X33397947Y-35823747D01*
X33397947Y-35823747D02*
X33254982Y-35752264D01*
X33254982Y-35752264D02*
X33183499Y-35680781D01*
X33183499Y-35680781D02*
X33112016Y-35537815D01*
X33112016Y-35537815D02*
X33040533Y-35251884D01*
X33040533Y-35251884D02*
X33040533Y-34894470D01*
X33040533Y-34894470D02*
X33112016Y-34608538D01*
X33112016Y-34608538D02*
X33183499Y-34465572D01*
X33183499Y-34465572D02*
X33254982Y-34394090D01*
X33254982Y-34394090D02*
X33397947Y-34322607D01*
X34827604Y-34322607D02*
X34970570Y-34322607D01*
X34970570Y-34322607D02*
X35113536Y-34394090D01*
X35113536Y-34394090D02*
X35185019Y-34465572D01*
X35185019Y-34465572D02*
X35256501Y-34608538D01*
X35256501Y-34608538D02*
X35327984Y-34894470D01*
X35327984Y-34894470D02*
X35327984Y-35251884D01*
X35327984Y-35251884D02*
X35256501Y-35537815D01*
X35256501Y-35537815D02*
X35185019Y-35680781D01*
X35185019Y-35680781D02*
X35113536Y-35752264D01*
X35113536Y-35752264D02*
X34970570Y-35823747D01*
X34970570Y-35823747D02*
X34827604Y-35823747D01*
X34827604Y-35823747D02*
X34684639Y-35752264D01*
X34684639Y-35752264D02*
X34613156Y-35680781D01*
X34613156Y-35680781D02*
X34541673Y-35537815D01*
X34541673Y-35537815D02*
X34470190Y-35251884D01*
X34470190Y-35251884D02*
X34470190Y-34894470D01*
X34470190Y-34894470D02*
X34541673Y-34608538D01*
X34541673Y-34608538D02*
X34613156Y-34465572D01*
X34613156Y-34465572D02*
X34684639Y-34394090D01*
X34684639Y-34394090D02*
X34827604Y-34322607D01*
X35971330Y-35823747D02*
X35971330Y-34322607D01*
X36829124Y-35823747D02*
X36185778Y-34965952D01*
X36829124Y-34322607D02*
X35971330Y-35180401D01*
D13*
%TO.C,D5*%
X71571905Y-34482380D02*
X71571905Y-33482380D01*
X71571905Y-33482380D02*
X71810000Y-33482380D01*
X71810000Y-33482380D02*
X71952857Y-33530000D01*
X71952857Y-33530000D02*
X72048095Y-33625238D01*
X72048095Y-33625238D02*
X72095714Y-33720476D01*
X72095714Y-33720476D02*
X72143333Y-33910952D01*
X72143333Y-33910952D02*
X72143333Y-34053809D01*
X72143333Y-34053809D02*
X72095714Y-34244285D01*
X72095714Y-34244285D02*
X72048095Y-34339523D01*
X72048095Y-34339523D02*
X71952857Y-34434761D01*
X71952857Y-34434761D02*
X71810000Y-34482380D01*
X71810000Y-34482380D02*
X71571905Y-34482380D01*
X73048095Y-33482380D02*
X72571905Y-33482380D01*
X72571905Y-33482380D02*
X72524286Y-33958571D01*
X72524286Y-33958571D02*
X72571905Y-33910952D01*
X72571905Y-33910952D02*
X72667143Y-33863333D01*
X72667143Y-33863333D02*
X72905238Y-33863333D01*
X72905238Y-33863333D02*
X73000476Y-33910952D01*
X73000476Y-33910952D02*
X73048095Y-33958571D01*
X73048095Y-33958571D02*
X73095714Y-34053809D01*
X73095714Y-34053809D02*
X73095714Y-34291904D01*
X73095714Y-34291904D02*
X73048095Y-34387142D01*
X73048095Y-34387142D02*
X73000476Y-34434761D01*
X73000476Y-34434761D02*
X72905238Y-34482380D01*
X72905238Y-34482380D02*
X72667143Y-34482380D01*
X72667143Y-34482380D02*
X72571905Y-34434761D01*
X72571905Y-34434761D02*
X72524286Y-34387142D01*
%TO.C,SW1*%
X53206667Y-38884761D02*
X53349524Y-38932380D01*
X53349524Y-38932380D02*
X53587619Y-38932380D01*
X53587619Y-38932380D02*
X53682857Y-38884761D01*
X53682857Y-38884761D02*
X53730476Y-38837142D01*
X53730476Y-38837142D02*
X53778095Y-38741904D01*
X53778095Y-38741904D02*
X53778095Y-38646666D01*
X53778095Y-38646666D02*
X53730476Y-38551428D01*
X53730476Y-38551428D02*
X53682857Y-38503809D01*
X53682857Y-38503809D02*
X53587619Y-38456190D01*
X53587619Y-38456190D02*
X53397143Y-38408571D01*
X53397143Y-38408571D02*
X53301905Y-38360952D01*
X53301905Y-38360952D02*
X53254286Y-38313333D01*
X53254286Y-38313333D02*
X53206667Y-38218095D01*
X53206667Y-38218095D02*
X53206667Y-38122857D01*
X53206667Y-38122857D02*
X53254286Y-38027619D01*
X53254286Y-38027619D02*
X53301905Y-37980000D01*
X53301905Y-37980000D02*
X53397143Y-37932380D01*
X53397143Y-37932380D02*
X53635238Y-37932380D01*
X53635238Y-37932380D02*
X53778095Y-37980000D01*
X54111429Y-37932380D02*
X54349524Y-38932380D01*
X54349524Y-38932380D02*
X54540000Y-38218095D01*
X54540000Y-38218095D02*
X54730476Y-38932380D01*
X54730476Y-38932380D02*
X54968572Y-37932380D01*
X55873333Y-38932380D02*
X55301905Y-38932380D01*
X55587619Y-38932380D02*
X55587619Y-37932380D01*
X55587619Y-37932380D02*
X55492381Y-38075238D01*
X55492381Y-38075238D02*
X55397143Y-38170476D01*
X55397143Y-38170476D02*
X55301905Y-38218095D01*
%TO.C,D1*%
X17606905Y-45302380D02*
X17606905Y-44302380D01*
X17606905Y-44302380D02*
X17845000Y-44302380D01*
X17845000Y-44302380D02*
X17987857Y-44350000D01*
X17987857Y-44350000D02*
X18083095Y-44445238D01*
X18083095Y-44445238D02*
X18130714Y-44540476D01*
X18130714Y-44540476D02*
X18178333Y-44730952D01*
X18178333Y-44730952D02*
X18178333Y-44873809D01*
X18178333Y-44873809D02*
X18130714Y-45064285D01*
X18130714Y-45064285D02*
X18083095Y-45159523D01*
X18083095Y-45159523D02*
X17987857Y-45254761D01*
X17987857Y-45254761D02*
X17845000Y-45302380D01*
X17845000Y-45302380D02*
X17606905Y-45302380D01*
X19130714Y-45302380D02*
X18559286Y-45302380D01*
X18845000Y-45302380D02*
X18845000Y-44302380D01*
X18845000Y-44302380D02*
X18749762Y-44445238D01*
X18749762Y-44445238D02*
X18654524Y-44540476D01*
X18654524Y-44540476D02*
X18559286Y-44588095D01*
%TO.C,U8*%
X67738095Y-6202380D02*
X67738095Y-7011904D01*
X67738095Y-7011904D02*
X67785714Y-7107142D01*
X67785714Y-7107142D02*
X67833333Y-7154761D01*
X67833333Y-7154761D02*
X67928571Y-7202380D01*
X67928571Y-7202380D02*
X68119047Y-7202380D01*
X68119047Y-7202380D02*
X68214285Y-7154761D01*
X68214285Y-7154761D02*
X68261904Y-7107142D01*
X68261904Y-7107142D02*
X68309523Y-7011904D01*
X68309523Y-7011904D02*
X68309523Y-6202380D01*
X68928571Y-6630952D02*
X68833333Y-6583333D01*
X68833333Y-6583333D02*
X68785714Y-6535714D01*
X68785714Y-6535714D02*
X68738095Y-6440476D01*
X68738095Y-6440476D02*
X68738095Y-6392857D01*
X68738095Y-6392857D02*
X68785714Y-6297619D01*
X68785714Y-6297619D02*
X68833333Y-6250000D01*
X68833333Y-6250000D02*
X68928571Y-6202380D01*
X68928571Y-6202380D02*
X69119047Y-6202380D01*
X69119047Y-6202380D02*
X69214285Y-6250000D01*
X69214285Y-6250000D02*
X69261904Y-6297619D01*
X69261904Y-6297619D02*
X69309523Y-6392857D01*
X69309523Y-6392857D02*
X69309523Y-6440476D01*
X69309523Y-6440476D02*
X69261904Y-6535714D01*
X69261904Y-6535714D02*
X69214285Y-6583333D01*
X69214285Y-6583333D02*
X69119047Y-6630952D01*
X69119047Y-6630952D02*
X68928571Y-6630952D01*
X68928571Y-6630952D02*
X68833333Y-6678571D01*
X68833333Y-6678571D02*
X68785714Y-6726190D01*
X68785714Y-6726190D02*
X68738095Y-6821428D01*
X68738095Y-6821428D02*
X68738095Y-7011904D01*
X68738095Y-7011904D02*
X68785714Y-7107142D01*
X68785714Y-7107142D02*
X68833333Y-7154761D01*
X68833333Y-7154761D02*
X68928571Y-7202380D01*
X68928571Y-7202380D02*
X69119047Y-7202380D01*
X69119047Y-7202380D02*
X69214285Y-7154761D01*
X69214285Y-7154761D02*
X69261904Y-7107142D01*
X69261904Y-7107142D02*
X69309523Y-7011904D01*
X69309523Y-7011904D02*
X69309523Y-6821428D01*
X69309523Y-6821428D02*
X69261904Y-6726190D01*
X69261904Y-6726190D02*
X69214285Y-6678571D01*
X69214285Y-6678571D02*
X69119047Y-6630952D01*
%TO.C,C1*%
X24020333Y-22855142D02*
X23972714Y-22902761D01*
X23972714Y-22902761D02*
X23829857Y-22950380D01*
X23829857Y-22950380D02*
X23734619Y-22950380D01*
X23734619Y-22950380D02*
X23591762Y-22902761D01*
X23591762Y-22902761D02*
X23496524Y-22807523D01*
X23496524Y-22807523D02*
X23448905Y-22712285D01*
X23448905Y-22712285D02*
X23401286Y-22521809D01*
X23401286Y-22521809D02*
X23401286Y-22378952D01*
X23401286Y-22378952D02*
X23448905Y-22188476D01*
X23448905Y-22188476D02*
X23496524Y-22093238D01*
X23496524Y-22093238D02*
X23591762Y-21998000D01*
X23591762Y-21998000D02*
X23734619Y-21950380D01*
X23734619Y-21950380D02*
X23829857Y-21950380D01*
X23829857Y-21950380D02*
X23972714Y-21998000D01*
X23972714Y-21998000D02*
X24020333Y-22045619D01*
X24972714Y-22950380D02*
X24401286Y-22950380D01*
X24687000Y-22950380D02*
X24687000Y-21950380D01*
X24687000Y-21950380D02*
X24591762Y-22093238D01*
X24591762Y-22093238D02*
X24496524Y-22188476D01*
X24496524Y-22188476D02*
X24401286Y-22236095D01*
%TO.C,J2*%
X79666666Y-38857380D02*
X79666666Y-39571666D01*
X79666666Y-39571666D02*
X79619047Y-39714523D01*
X79619047Y-39714523D02*
X79523809Y-39809761D01*
X79523809Y-39809761D02*
X79380952Y-39857380D01*
X79380952Y-39857380D02*
X79285714Y-39857380D01*
X80095238Y-38952619D02*
X80142857Y-38905000D01*
X80142857Y-38905000D02*
X80238095Y-38857380D01*
X80238095Y-38857380D02*
X80476190Y-38857380D01*
X80476190Y-38857380D02*
X80571428Y-38905000D01*
X80571428Y-38905000D02*
X80619047Y-38952619D01*
X80619047Y-38952619D02*
X80666666Y-39047857D01*
X80666666Y-39047857D02*
X80666666Y-39143095D01*
X80666666Y-39143095D02*
X80619047Y-39285952D01*
X80619047Y-39285952D02*
X80047619Y-39857380D01*
X80047619Y-39857380D02*
X80666666Y-39857380D01*
%TO.C,C7*%
X56833333Y-4107142D02*
X56785714Y-4154761D01*
X56785714Y-4154761D02*
X56642857Y-4202380D01*
X56642857Y-4202380D02*
X56547619Y-4202380D01*
X56547619Y-4202380D02*
X56404762Y-4154761D01*
X56404762Y-4154761D02*
X56309524Y-4059523D01*
X56309524Y-4059523D02*
X56261905Y-3964285D01*
X56261905Y-3964285D02*
X56214286Y-3773809D01*
X56214286Y-3773809D02*
X56214286Y-3630952D01*
X56214286Y-3630952D02*
X56261905Y-3440476D01*
X56261905Y-3440476D02*
X56309524Y-3345238D01*
X56309524Y-3345238D02*
X56404762Y-3250000D01*
X56404762Y-3250000D02*
X56547619Y-3202380D01*
X56547619Y-3202380D02*
X56642857Y-3202380D01*
X56642857Y-3202380D02*
X56785714Y-3250000D01*
X56785714Y-3250000D02*
X56833333Y-3297619D01*
X57166667Y-3202380D02*
X57833333Y-3202380D01*
X57833333Y-3202380D02*
X57404762Y-4202380D01*
%TO.C,U1*%
X19498095Y-6466380D02*
X19498095Y-7275904D01*
X19498095Y-7275904D02*
X19545714Y-7371142D01*
X19545714Y-7371142D02*
X19593333Y-7418761D01*
X19593333Y-7418761D02*
X19688571Y-7466380D01*
X19688571Y-7466380D02*
X19879047Y-7466380D01*
X19879047Y-7466380D02*
X19974285Y-7418761D01*
X19974285Y-7418761D02*
X20021904Y-7371142D01*
X20021904Y-7371142D02*
X20069523Y-7275904D01*
X20069523Y-7275904D02*
X20069523Y-6466380D01*
X21069523Y-7466380D02*
X20498095Y-7466380D01*
X20783809Y-7466380D02*
X20783809Y-6466380D01*
X20783809Y-6466380D02*
X20688571Y-6609238D01*
X20688571Y-6609238D02*
X20593333Y-6704476D01*
X20593333Y-6704476D02*
X20498095Y-6752095D01*
%TO.C,C4*%
X11583333Y-40107142D02*
X11535714Y-40154761D01*
X11535714Y-40154761D02*
X11392857Y-40202380D01*
X11392857Y-40202380D02*
X11297619Y-40202380D01*
X11297619Y-40202380D02*
X11154762Y-40154761D01*
X11154762Y-40154761D02*
X11059524Y-40059523D01*
X11059524Y-40059523D02*
X11011905Y-39964285D01*
X11011905Y-39964285D02*
X10964286Y-39773809D01*
X10964286Y-39773809D02*
X10964286Y-39630952D01*
X10964286Y-39630952D02*
X11011905Y-39440476D01*
X11011905Y-39440476D02*
X11059524Y-39345238D01*
X11059524Y-39345238D02*
X11154762Y-39250000D01*
X11154762Y-39250000D02*
X11297619Y-39202380D01*
X11297619Y-39202380D02*
X11392857Y-39202380D01*
X11392857Y-39202380D02*
X11535714Y-39250000D01*
X11535714Y-39250000D02*
X11583333Y-39297619D01*
X12440476Y-39535714D02*
X12440476Y-40202380D01*
X12202381Y-39154761D02*
X11964286Y-39869047D01*
X11964286Y-39869047D02*
X12583333Y-39869047D01*
%TO.C,C12*%
X45607142Y-24107142D02*
X45559523Y-24154761D01*
X45559523Y-24154761D02*
X45416666Y-24202380D01*
X45416666Y-24202380D02*
X45321428Y-24202380D01*
X45321428Y-24202380D02*
X45178571Y-24154761D01*
X45178571Y-24154761D02*
X45083333Y-24059523D01*
X45083333Y-24059523D02*
X45035714Y-23964285D01*
X45035714Y-23964285D02*
X44988095Y-23773809D01*
X44988095Y-23773809D02*
X44988095Y-23630952D01*
X44988095Y-23630952D02*
X45035714Y-23440476D01*
X45035714Y-23440476D02*
X45083333Y-23345238D01*
X45083333Y-23345238D02*
X45178571Y-23250000D01*
X45178571Y-23250000D02*
X45321428Y-23202380D01*
X45321428Y-23202380D02*
X45416666Y-23202380D01*
X45416666Y-23202380D02*
X45559523Y-23250000D01*
X45559523Y-23250000D02*
X45607142Y-23297619D01*
X46559523Y-24202380D02*
X45988095Y-24202380D01*
X46273809Y-24202380D02*
X46273809Y-23202380D01*
X46273809Y-23202380D02*
X46178571Y-23345238D01*
X46178571Y-23345238D02*
X46083333Y-23440476D01*
X46083333Y-23440476D02*
X45988095Y-23488095D01*
X46940476Y-23297619D02*
X46988095Y-23250000D01*
X46988095Y-23250000D02*
X47083333Y-23202380D01*
X47083333Y-23202380D02*
X47321428Y-23202380D01*
X47321428Y-23202380D02*
X47416666Y-23250000D01*
X47416666Y-23250000D02*
X47464285Y-23297619D01*
X47464285Y-23297619D02*
X47511904Y-23392857D01*
X47511904Y-23392857D02*
X47511904Y-23488095D01*
X47511904Y-23488095D02*
X47464285Y-23630952D01*
X47464285Y-23630952D02*
X46892857Y-24202380D01*
X46892857Y-24202380D02*
X47511904Y-24202380D01*
%TO.C,R3*%
X48833333Y-12952380D02*
X48500000Y-12476190D01*
X48261905Y-12952380D02*
X48261905Y-11952380D01*
X48261905Y-11952380D02*
X48642857Y-11952380D01*
X48642857Y-11952380D02*
X48738095Y-12000000D01*
X48738095Y-12000000D02*
X48785714Y-12047619D01*
X48785714Y-12047619D02*
X48833333Y-12142857D01*
X48833333Y-12142857D02*
X48833333Y-12285714D01*
X48833333Y-12285714D02*
X48785714Y-12380952D01*
X48785714Y-12380952D02*
X48738095Y-12428571D01*
X48738095Y-12428571D02*
X48642857Y-12476190D01*
X48642857Y-12476190D02*
X48261905Y-12476190D01*
X49166667Y-11952380D02*
X49785714Y-11952380D01*
X49785714Y-11952380D02*
X49452381Y-12333333D01*
X49452381Y-12333333D02*
X49595238Y-12333333D01*
X49595238Y-12333333D02*
X49690476Y-12380952D01*
X49690476Y-12380952D02*
X49738095Y-12428571D01*
X49738095Y-12428571D02*
X49785714Y-12523809D01*
X49785714Y-12523809D02*
X49785714Y-12761904D01*
X49785714Y-12761904D02*
X49738095Y-12857142D01*
X49738095Y-12857142D02*
X49690476Y-12904761D01*
X49690476Y-12904761D02*
X49595238Y-12952380D01*
X49595238Y-12952380D02*
X49309524Y-12952380D01*
X49309524Y-12952380D02*
X49214286Y-12904761D01*
X49214286Y-12904761D02*
X49166667Y-12857142D01*
%TO.C,D3*%
X80261905Y-10952380D02*
X80261905Y-9952380D01*
X80261905Y-9952380D02*
X80500000Y-9952380D01*
X80500000Y-9952380D02*
X80642857Y-10000000D01*
X80642857Y-10000000D02*
X80738095Y-10095238D01*
X80738095Y-10095238D02*
X80785714Y-10190476D01*
X80785714Y-10190476D02*
X80833333Y-10380952D01*
X80833333Y-10380952D02*
X80833333Y-10523809D01*
X80833333Y-10523809D02*
X80785714Y-10714285D01*
X80785714Y-10714285D02*
X80738095Y-10809523D01*
X80738095Y-10809523D02*
X80642857Y-10904761D01*
X80642857Y-10904761D02*
X80500000Y-10952380D01*
X80500000Y-10952380D02*
X80261905Y-10952380D01*
X81166667Y-9952380D02*
X81785714Y-9952380D01*
X81785714Y-9952380D02*
X81452381Y-10333333D01*
X81452381Y-10333333D02*
X81595238Y-10333333D01*
X81595238Y-10333333D02*
X81690476Y-10380952D01*
X81690476Y-10380952D02*
X81738095Y-10428571D01*
X81738095Y-10428571D02*
X81785714Y-10523809D01*
X81785714Y-10523809D02*
X81785714Y-10761904D01*
X81785714Y-10761904D02*
X81738095Y-10857142D01*
X81738095Y-10857142D02*
X81690476Y-10904761D01*
X81690476Y-10904761D02*
X81595238Y-10952380D01*
X81595238Y-10952380D02*
X81309524Y-10952380D01*
X81309524Y-10952380D02*
X81214286Y-10904761D01*
X81214286Y-10904761D02*
X81166667Y-10857142D01*
%TO.C,R1*%
X30952380Y-12416666D02*
X30476190Y-12749999D01*
X30952380Y-12988094D02*
X29952380Y-12988094D01*
X29952380Y-12988094D02*
X29952380Y-12607142D01*
X29952380Y-12607142D02*
X30000000Y-12511904D01*
X30000000Y-12511904D02*
X30047619Y-12464285D01*
X30047619Y-12464285D02*
X30142857Y-12416666D01*
X30142857Y-12416666D02*
X30285714Y-12416666D01*
X30285714Y-12416666D02*
X30380952Y-12464285D01*
X30380952Y-12464285D02*
X30428571Y-12511904D01*
X30428571Y-12511904D02*
X30476190Y-12607142D01*
X30476190Y-12607142D02*
X30476190Y-12988094D01*
X30952380Y-11464285D02*
X30952380Y-12035713D01*
X30952380Y-11749999D02*
X29952380Y-11749999D01*
X29952380Y-11749999D02*
X30095238Y-11845237D01*
X30095238Y-11845237D02*
X30190476Y-11940475D01*
X30190476Y-11940475D02*
X30238095Y-12035713D01*
%TO.C,R8*%
X63232380Y-10218666D02*
X62756190Y-10551999D01*
X63232380Y-10790094D02*
X62232380Y-10790094D01*
X62232380Y-10790094D02*
X62232380Y-10409142D01*
X62232380Y-10409142D02*
X62280000Y-10313904D01*
X62280000Y-10313904D02*
X62327619Y-10266285D01*
X62327619Y-10266285D02*
X62422857Y-10218666D01*
X62422857Y-10218666D02*
X62565714Y-10218666D01*
X62565714Y-10218666D02*
X62660952Y-10266285D01*
X62660952Y-10266285D02*
X62708571Y-10313904D01*
X62708571Y-10313904D02*
X62756190Y-10409142D01*
X62756190Y-10409142D02*
X62756190Y-10790094D01*
X62660952Y-9647237D02*
X62613333Y-9742475D01*
X62613333Y-9742475D02*
X62565714Y-9790094D01*
X62565714Y-9790094D02*
X62470476Y-9837713D01*
X62470476Y-9837713D02*
X62422857Y-9837713D01*
X62422857Y-9837713D02*
X62327619Y-9790094D01*
X62327619Y-9790094D02*
X62280000Y-9742475D01*
X62280000Y-9742475D02*
X62232380Y-9647237D01*
X62232380Y-9647237D02*
X62232380Y-9456761D01*
X62232380Y-9456761D02*
X62280000Y-9361523D01*
X62280000Y-9361523D02*
X62327619Y-9313904D01*
X62327619Y-9313904D02*
X62422857Y-9266285D01*
X62422857Y-9266285D02*
X62470476Y-9266285D01*
X62470476Y-9266285D02*
X62565714Y-9313904D01*
X62565714Y-9313904D02*
X62613333Y-9361523D01*
X62613333Y-9361523D02*
X62660952Y-9456761D01*
X62660952Y-9456761D02*
X62660952Y-9647237D01*
X62660952Y-9647237D02*
X62708571Y-9742475D01*
X62708571Y-9742475D02*
X62756190Y-9790094D01*
X62756190Y-9790094D02*
X62851428Y-9837713D01*
X62851428Y-9837713D02*
X63041904Y-9837713D01*
X63041904Y-9837713D02*
X63137142Y-9790094D01*
X63137142Y-9790094D02*
X63184761Y-9742475D01*
X63184761Y-9742475D02*
X63232380Y-9647237D01*
X63232380Y-9647237D02*
X63232380Y-9456761D01*
X63232380Y-9456761D02*
X63184761Y-9361523D01*
X63184761Y-9361523D02*
X63137142Y-9313904D01*
X63137142Y-9313904D02*
X63041904Y-9266285D01*
X63041904Y-9266285D02*
X62851428Y-9266285D01*
X62851428Y-9266285D02*
X62756190Y-9313904D01*
X62756190Y-9313904D02*
X62708571Y-9361523D01*
X62708571Y-9361523D02*
X62660952Y-9456761D01*
%TO.C,C6*%
X39083333Y-4107142D02*
X39035714Y-4154761D01*
X39035714Y-4154761D02*
X38892857Y-4202380D01*
X38892857Y-4202380D02*
X38797619Y-4202380D01*
X38797619Y-4202380D02*
X38654762Y-4154761D01*
X38654762Y-4154761D02*
X38559524Y-4059523D01*
X38559524Y-4059523D02*
X38511905Y-3964285D01*
X38511905Y-3964285D02*
X38464286Y-3773809D01*
X38464286Y-3773809D02*
X38464286Y-3630952D01*
X38464286Y-3630952D02*
X38511905Y-3440476D01*
X38511905Y-3440476D02*
X38559524Y-3345238D01*
X38559524Y-3345238D02*
X38654762Y-3250000D01*
X38654762Y-3250000D02*
X38797619Y-3202380D01*
X38797619Y-3202380D02*
X38892857Y-3202380D01*
X38892857Y-3202380D02*
X39035714Y-3250000D01*
X39035714Y-3250000D02*
X39083333Y-3297619D01*
X39940476Y-3202380D02*
X39750000Y-3202380D01*
X39750000Y-3202380D02*
X39654762Y-3250000D01*
X39654762Y-3250000D02*
X39607143Y-3297619D01*
X39607143Y-3297619D02*
X39511905Y-3440476D01*
X39511905Y-3440476D02*
X39464286Y-3630952D01*
X39464286Y-3630952D02*
X39464286Y-4011904D01*
X39464286Y-4011904D02*
X39511905Y-4107142D01*
X39511905Y-4107142D02*
X39559524Y-4154761D01*
X39559524Y-4154761D02*
X39654762Y-4202380D01*
X39654762Y-4202380D02*
X39845238Y-4202380D01*
X39845238Y-4202380D02*
X39940476Y-4154761D01*
X39940476Y-4154761D02*
X39988095Y-4107142D01*
X39988095Y-4107142D02*
X40035714Y-4011904D01*
X40035714Y-4011904D02*
X40035714Y-3773809D01*
X40035714Y-3773809D02*
X39988095Y-3678571D01*
X39988095Y-3678571D02*
X39940476Y-3630952D01*
X39940476Y-3630952D02*
X39845238Y-3583333D01*
X39845238Y-3583333D02*
X39654762Y-3583333D01*
X39654762Y-3583333D02*
X39559524Y-3630952D01*
X39559524Y-3630952D02*
X39511905Y-3678571D01*
X39511905Y-3678571D02*
X39464286Y-3773809D01*
%TO.C,D4*%
X53791905Y-34482380D02*
X53791905Y-33482380D01*
X53791905Y-33482380D02*
X54030000Y-33482380D01*
X54030000Y-33482380D02*
X54172857Y-33530000D01*
X54172857Y-33530000D02*
X54268095Y-33625238D01*
X54268095Y-33625238D02*
X54315714Y-33720476D01*
X54315714Y-33720476D02*
X54363333Y-33910952D01*
X54363333Y-33910952D02*
X54363333Y-34053809D01*
X54363333Y-34053809D02*
X54315714Y-34244285D01*
X54315714Y-34244285D02*
X54268095Y-34339523D01*
X54268095Y-34339523D02*
X54172857Y-34434761D01*
X54172857Y-34434761D02*
X54030000Y-34482380D01*
X54030000Y-34482380D02*
X53791905Y-34482380D01*
X55220476Y-33815714D02*
X55220476Y-34482380D01*
X54982381Y-33434761D02*
X54744286Y-34149047D01*
X54744286Y-34149047D02*
X55363333Y-34149047D01*
D15*
%TO.C,R9*%
X50720000Y-15300000D02*
X50720000Y-16250000D01*
X51640000Y-16250000D02*
X49800000Y-16250000D01*
X49800000Y-16250000D02*
X49800000Y-20090000D01*
X51640000Y-20090000D02*
X51640000Y-16250000D01*
X49800000Y-20090000D02*
X51640000Y-20090000D01*
X50720000Y-21040000D02*
X50720000Y-20090000D01*
%TO.C,SW2*%
X75566000Y-43480000D02*
X75566000Y-41980000D01*
X74316000Y-39480000D02*
X69816000Y-39480000D01*
X69816000Y-45980000D02*
X74316000Y-45980000D01*
X68566000Y-41980000D02*
X68566000Y-43480000D01*
%TO.C,U3*%
X3700000Y-11640000D02*
X3700000Y-27530000D01*
X3700000Y-11640000D02*
X13940000Y-11640000D01*
X3700000Y-27530000D02*
X13940000Y-27530000D01*
X6280000Y-27530000D02*
X6280000Y-30070000D01*
X8820000Y-27530000D02*
X8820000Y-30070000D01*
X11360000Y-27530000D02*
X11360000Y-30070000D01*
X13940000Y-11640000D02*
X13940000Y-27530000D01*
%TO.C,C2*%
X14610000Y-10809801D02*
X14610000Y-10409801D01*
X14410000Y-10609801D02*
X14810000Y-10609801D01*
X13725000Y-8540000D02*
X14965000Y-8540000D01*
X16645000Y-8540000D02*
X17885000Y-8540000D01*
X13725000Y-8500000D02*
X14965000Y-8500000D01*
X16645000Y-8500000D02*
X17885000Y-8500000D01*
X13726000Y-8460000D02*
X14965000Y-8460000D01*
X16645000Y-8460000D02*
X17884000Y-8460000D01*
X13728000Y-8420000D02*
X14965000Y-8420000D01*
X16645000Y-8420000D02*
X17882000Y-8420000D01*
X13731000Y-8380000D02*
X14965000Y-8380000D01*
X16645000Y-8380000D02*
X17879000Y-8380000D01*
X13734000Y-8340000D02*
X14965000Y-8340000D01*
X16645000Y-8340000D02*
X17876000Y-8340000D01*
X13738000Y-8300000D02*
X14965000Y-8300000D01*
X16645000Y-8300000D02*
X17872000Y-8300000D01*
X13743000Y-8260000D02*
X14965000Y-8260000D01*
X16645000Y-8260000D02*
X17867000Y-8260000D01*
X13749000Y-8220000D02*
X14965000Y-8220000D01*
X16645000Y-8220000D02*
X17861000Y-8220000D01*
X13755000Y-8180000D02*
X14965000Y-8180000D01*
X16645000Y-8180000D02*
X17855000Y-8180000D01*
X13763000Y-8140000D02*
X14965000Y-8140000D01*
X16645000Y-8140000D02*
X17847000Y-8140000D01*
X13771000Y-8100000D02*
X14965000Y-8100000D01*
X16645000Y-8100000D02*
X17839000Y-8100000D01*
X13780000Y-8060000D02*
X14965000Y-8060000D01*
X16645000Y-8060000D02*
X17830000Y-8060000D01*
X13789000Y-8020000D02*
X14965000Y-8020000D01*
X16645000Y-8020000D02*
X17821000Y-8020000D01*
X13800000Y-7980000D02*
X14965000Y-7980000D01*
X16645000Y-7980000D02*
X17810000Y-7980000D01*
X13811000Y-7940000D02*
X14965000Y-7940000D01*
X16645000Y-7940000D02*
X17799000Y-7940000D01*
X13823000Y-7900000D02*
X14965000Y-7900000D01*
X16645000Y-7900000D02*
X17787000Y-7900000D01*
X13837000Y-7860000D02*
X14965000Y-7860000D01*
X16645000Y-7860000D02*
X17773000Y-7860000D01*
X13851000Y-7819000D02*
X14965000Y-7819000D01*
X16645000Y-7819000D02*
X17759000Y-7819000D01*
X13865000Y-7779000D02*
X14965000Y-7779000D01*
X16645000Y-7779000D02*
X17745000Y-7779000D01*
X13881000Y-7739000D02*
X14965000Y-7739000D01*
X16645000Y-7739000D02*
X17729000Y-7739000D01*
X13898000Y-7699000D02*
X14965000Y-7699000D01*
X16645000Y-7699000D02*
X17712000Y-7699000D01*
X13916000Y-7659000D02*
X14965000Y-7659000D01*
X16645000Y-7659000D02*
X17694000Y-7659000D01*
X13935000Y-7619000D02*
X14965000Y-7619000D01*
X16645000Y-7619000D02*
X17675000Y-7619000D01*
X13954000Y-7579000D02*
X14965000Y-7579000D01*
X16645000Y-7579000D02*
X17656000Y-7579000D01*
X13975000Y-7539000D02*
X14965000Y-7539000D01*
X16645000Y-7539000D02*
X17635000Y-7539000D01*
X13997000Y-7499000D02*
X14965000Y-7499000D01*
X16645000Y-7499000D02*
X17613000Y-7499000D01*
X14020000Y-7459000D02*
X14965000Y-7459000D01*
X16645000Y-7459000D02*
X17590000Y-7459000D01*
X14045000Y-7419000D02*
X14965000Y-7419000D01*
X16645000Y-7419000D02*
X17565000Y-7419000D01*
X14070000Y-7379000D02*
X14965000Y-7379000D01*
X16645000Y-7379000D02*
X17540000Y-7379000D01*
X14097000Y-7339000D02*
X14965000Y-7339000D01*
X16645000Y-7339000D02*
X17513000Y-7339000D01*
X14125000Y-7299000D02*
X14965000Y-7299000D01*
X16645000Y-7299000D02*
X17485000Y-7299000D01*
X14155000Y-7259000D02*
X14965000Y-7259000D01*
X16645000Y-7259000D02*
X17455000Y-7259000D01*
X14186000Y-7219000D02*
X14965000Y-7219000D01*
X16645000Y-7219000D02*
X17424000Y-7219000D01*
X14218000Y-7179000D02*
X14965000Y-7179000D01*
X16645000Y-7179000D02*
X17392000Y-7179000D01*
X14253000Y-7139000D02*
X14965000Y-7139000D01*
X16645000Y-7139000D02*
X17357000Y-7139000D01*
X14289000Y-7099000D02*
X14965000Y-7099000D01*
X16645000Y-7099000D02*
X17321000Y-7099000D01*
X14327000Y-7059000D02*
X14965000Y-7059000D01*
X16645000Y-7059000D02*
X17283000Y-7059000D01*
X14367000Y-7019000D02*
X14965000Y-7019000D01*
X16645000Y-7019000D02*
X17243000Y-7019000D01*
X14409000Y-6979000D02*
X14965000Y-6979000D01*
X16645000Y-6979000D02*
X17201000Y-6979000D01*
X14454000Y-6939000D02*
X17156000Y-6939000D01*
X14501000Y-6899000D02*
X17109000Y-6899000D01*
X14551000Y-6859000D02*
X17059000Y-6859000D01*
X14605000Y-6819000D02*
X17005000Y-6819000D01*
X14663000Y-6779000D02*
X16947000Y-6779000D01*
X14725000Y-6739000D02*
X16885000Y-6739000D01*
X14792000Y-6699000D02*
X16818000Y-6699000D01*
X14865000Y-6659000D02*
X16745000Y-6659000D01*
X14946000Y-6619000D02*
X16664000Y-6619000D01*
X15037000Y-6579000D02*
X16573000Y-6579000D01*
X15141000Y-6539000D02*
X16469000Y-6539000D01*
X15268000Y-6499000D02*
X16342000Y-6499000D01*
X15435000Y-6459000D02*
X16175000Y-6459000D01*
X17925000Y-8540000D02*
G75*
G03*
X17925000Y-8540000I-2120000J0D01*
G01*
%TO.C,D2*%
X36780000Y-31615000D02*
X36780000Y-28525000D01*
X31230001Y-30069538D02*
G75*
G03*
X36779999Y-31614830I2989999J-462D01*
G01*
X36780000Y-28525170D02*
G75*
G03*
X31230000Y-30070462I-2560000J-1544830D01*
G01*
X36720000Y-30070000D02*
G75*
G03*
X36720000Y-30070000I-2500000J0D01*
G01*
%TO.C,C10*%
X39909000Y-21640000D02*
X38651000Y-21640000D01*
X39909000Y-19800000D02*
X38651000Y-19800000D01*
%TO.C,R10*%
X54210000Y-20085000D02*
X55160000Y-20085000D01*
X55160000Y-19165000D02*
X55160000Y-21005000D01*
X55160000Y-21005000D02*
X59000000Y-21005000D01*
X59000000Y-19165000D02*
X55160000Y-19165000D01*
X59000000Y-21005000D02*
X59000000Y-19165000D01*
X59950000Y-20085000D02*
X59000000Y-20085000D01*
%TO.C,J3*%
X11725000Y-43745000D02*
X10425000Y-43745000D01*
X11425000Y-44045000D02*
X11425000Y-46045000D01*
X-3075000Y-44045000D02*
X11425000Y-44045000D01*
X11725000Y-45445000D02*
X11725000Y-43745000D01*
X11425000Y-51245000D02*
X11425000Y-53245000D01*
X11425000Y-53245000D02*
X10125000Y-53245000D01*
X5525000Y-53245000D02*
X-3075000Y-53245000D01*
X-3075000Y-53245000D02*
X-3075000Y-44045000D01*
%TO.C,C5*%
X24719000Y-6410000D02*
X23461000Y-6410000D01*
X24719000Y-4570000D02*
X23461000Y-4570000D01*
%TO.C,R6*%
X32950000Y-15310000D02*
X32950000Y-16260000D01*
X33870000Y-16260000D02*
X32030000Y-16260000D01*
X32030000Y-16260000D02*
X32030000Y-20100000D01*
X33870000Y-20100000D02*
X33870000Y-16260000D01*
X32030000Y-20100000D02*
X33870000Y-20100000D01*
X32950000Y-21050000D02*
X32950000Y-20100000D01*
%TO.C,C3*%
X4029759Y-37931000D02*
X4659759Y-37931000D01*
X4344759Y-37616000D02*
X4344759Y-38246000D01*
X7530000Y-36540000D02*
X7530000Y-43000000D01*
X7570000Y-36540000D02*
X7570000Y-43000000D01*
X7610000Y-36540000D02*
X7610000Y-43000000D01*
X7650000Y-36542000D02*
X7650000Y-42998000D01*
X7690000Y-36543000D02*
X7690000Y-42997000D01*
X7730000Y-36546000D02*
X7730000Y-42994000D01*
X7770000Y-36548000D02*
X7770000Y-38730000D01*
X7770000Y-40810000D02*
X7770000Y-42992000D01*
X7810000Y-36552000D02*
X7810000Y-38730000D01*
X7810000Y-40810000D02*
X7810000Y-42988000D01*
X7850000Y-36555000D02*
X7850000Y-38730000D01*
X7850000Y-40810000D02*
X7850000Y-42985000D01*
X7890000Y-36559000D02*
X7890000Y-38730000D01*
X7890000Y-40810000D02*
X7890000Y-42981000D01*
X7930000Y-36564000D02*
X7930000Y-38730000D01*
X7930000Y-40810000D02*
X7930000Y-42976000D01*
X7970000Y-36569000D02*
X7970000Y-38730000D01*
X7970000Y-40810000D02*
X7970000Y-42971000D01*
X8010000Y-36575000D02*
X8010000Y-38730000D01*
X8010000Y-40810000D02*
X8010000Y-42965000D01*
X8050000Y-36581000D02*
X8050000Y-38730000D01*
X8050000Y-40810000D02*
X8050000Y-42959000D01*
X8090000Y-36588000D02*
X8090000Y-38730000D01*
X8090000Y-40810000D02*
X8090000Y-42952000D01*
X8130000Y-36595000D02*
X8130000Y-38730000D01*
X8130000Y-40810000D02*
X8130000Y-42945000D01*
X8170000Y-36603000D02*
X8170000Y-38730000D01*
X8170000Y-40810000D02*
X8170000Y-42937000D01*
X8210000Y-36611000D02*
X8210000Y-38730000D01*
X8210000Y-40810000D02*
X8210000Y-42929000D01*
X8251000Y-36620000D02*
X8251000Y-38730000D01*
X8251000Y-40810000D02*
X8251000Y-42920000D01*
X8291000Y-36629000D02*
X8291000Y-38730000D01*
X8291000Y-40810000D02*
X8291000Y-42911000D01*
X8331000Y-36639000D02*
X8331000Y-38730000D01*
X8331000Y-40810000D02*
X8331000Y-42901000D01*
X8371000Y-36649000D02*
X8371000Y-38730000D01*
X8371000Y-40810000D02*
X8371000Y-42891000D01*
X8411000Y-36660000D02*
X8411000Y-38730000D01*
X8411000Y-40810000D02*
X8411000Y-42880000D01*
X8451000Y-36672000D02*
X8451000Y-38730000D01*
X8451000Y-40810000D02*
X8451000Y-42868000D01*
X8491000Y-36684000D02*
X8491000Y-38730000D01*
X8491000Y-40810000D02*
X8491000Y-42856000D01*
X8531000Y-36696000D02*
X8531000Y-38730000D01*
X8531000Y-40810000D02*
X8531000Y-42844000D01*
X8571000Y-36709000D02*
X8571000Y-38730000D01*
X8571000Y-40810000D02*
X8571000Y-42831000D01*
X8611000Y-36723000D02*
X8611000Y-38730000D01*
X8611000Y-40810000D02*
X8611000Y-42817000D01*
X8651000Y-36737000D02*
X8651000Y-38730000D01*
X8651000Y-40810000D02*
X8651000Y-42803000D01*
X8691000Y-36752000D02*
X8691000Y-38730000D01*
X8691000Y-40810000D02*
X8691000Y-42788000D01*
X8731000Y-36768000D02*
X8731000Y-38730000D01*
X8731000Y-40810000D02*
X8731000Y-42772000D01*
X8771000Y-36784000D02*
X8771000Y-38730000D01*
X8771000Y-40810000D02*
X8771000Y-42756000D01*
X8811000Y-36800000D02*
X8811000Y-38730000D01*
X8811000Y-40810000D02*
X8811000Y-42740000D01*
X8851000Y-36818000D02*
X8851000Y-38730000D01*
X8851000Y-40810000D02*
X8851000Y-42722000D01*
X8891000Y-36836000D02*
X8891000Y-38730000D01*
X8891000Y-40810000D02*
X8891000Y-42704000D01*
X8931000Y-36854000D02*
X8931000Y-38730000D01*
X8931000Y-40810000D02*
X8931000Y-42686000D01*
X8971000Y-36874000D02*
X8971000Y-38730000D01*
X8971000Y-40810000D02*
X8971000Y-42666000D01*
X9011000Y-36894000D02*
X9011000Y-38730000D01*
X9011000Y-40810000D02*
X9011000Y-42646000D01*
X9051000Y-36914000D02*
X9051000Y-38730000D01*
X9051000Y-40810000D02*
X9051000Y-42626000D01*
X9091000Y-36936000D02*
X9091000Y-38730000D01*
X9091000Y-40810000D02*
X9091000Y-42604000D01*
X9131000Y-36958000D02*
X9131000Y-38730000D01*
X9131000Y-40810000D02*
X9131000Y-42582000D01*
X9171000Y-36980000D02*
X9171000Y-38730000D01*
X9171000Y-40810000D02*
X9171000Y-42560000D01*
X9211000Y-37004000D02*
X9211000Y-38730000D01*
X9211000Y-40810000D02*
X9211000Y-42536000D01*
X9251000Y-37028000D02*
X9251000Y-38730000D01*
X9251000Y-40810000D02*
X9251000Y-42512000D01*
X9291000Y-37054000D02*
X9291000Y-38730000D01*
X9291000Y-40810000D02*
X9291000Y-42486000D01*
X9331000Y-37080000D02*
X9331000Y-38730000D01*
X9331000Y-40810000D02*
X9331000Y-42460000D01*
X9371000Y-37106000D02*
X9371000Y-38730000D01*
X9371000Y-40810000D02*
X9371000Y-42434000D01*
X9411000Y-37134000D02*
X9411000Y-38730000D01*
X9411000Y-40810000D02*
X9411000Y-42406000D01*
X9451000Y-37163000D02*
X9451000Y-38730000D01*
X9451000Y-40810000D02*
X9451000Y-42377000D01*
X9491000Y-37192000D02*
X9491000Y-38730000D01*
X9491000Y-40810000D02*
X9491000Y-42348000D01*
X9531000Y-37222000D02*
X9531000Y-38730000D01*
X9531000Y-40810000D02*
X9531000Y-42318000D01*
X9571000Y-37254000D02*
X9571000Y-38730000D01*
X9571000Y-40810000D02*
X9571000Y-42286000D01*
X9611000Y-37286000D02*
X9611000Y-38730000D01*
X9611000Y-40810000D02*
X9611000Y-42254000D01*
X9651000Y-37320000D02*
X9651000Y-38730000D01*
X9651000Y-40810000D02*
X9651000Y-42220000D01*
X9691000Y-37354000D02*
X9691000Y-38730000D01*
X9691000Y-40810000D02*
X9691000Y-42186000D01*
X9731000Y-37390000D02*
X9731000Y-38730000D01*
X9731000Y-40810000D02*
X9731000Y-42150000D01*
X9771000Y-37427000D02*
X9771000Y-38730000D01*
X9771000Y-40810000D02*
X9771000Y-42113000D01*
X9811000Y-37465000D02*
X9811000Y-38730000D01*
X9811000Y-40810000D02*
X9811000Y-42075000D01*
X9851000Y-37505000D02*
X9851000Y-42035000D01*
X9891000Y-37546000D02*
X9891000Y-41994000D01*
X9931000Y-37588000D02*
X9931000Y-41952000D01*
X9971000Y-37633000D02*
X9971000Y-41907000D01*
X10011000Y-37678000D02*
X10011000Y-41862000D01*
X10051000Y-37726000D02*
X10051000Y-41814000D01*
X10091000Y-37775000D02*
X10091000Y-41765000D01*
X10131000Y-37826000D02*
X10131000Y-41714000D01*
X10171000Y-37880000D02*
X10171000Y-41660000D01*
X10211000Y-37936000D02*
X10211000Y-41604000D01*
X10251000Y-37994000D02*
X10251000Y-41546000D01*
X10291000Y-38056000D02*
X10291000Y-41484000D01*
X10331000Y-38120000D02*
X10331000Y-41420000D01*
X10371000Y-38189000D02*
X10371000Y-41351000D01*
X10411000Y-38261000D02*
X10411000Y-41279000D01*
X10451000Y-38338000D02*
X10451000Y-41202000D01*
X10491000Y-38420000D02*
X10491000Y-41120000D01*
X10531000Y-38508000D02*
X10531000Y-41032000D01*
X10571000Y-38605000D02*
X10571000Y-40935000D01*
X10611000Y-38711000D02*
X10611000Y-40829000D01*
X10651000Y-38830000D02*
X10651000Y-40710000D01*
X10691000Y-38968000D02*
X10691000Y-40572000D01*
X10731000Y-39137000D02*
X10731000Y-40403000D01*
X10771000Y-39368000D02*
X10771000Y-40172000D01*
X10800000Y-39770000D02*
G75*
G03*
X10800000Y-39770000I-3270000J0D01*
G01*
%TO.C,U6*%
X36660000Y-7970000D02*
X36660000Y-18250000D01*
X36660000Y-18250000D02*
X41960000Y-18250000D01*
X38310000Y-7970000D02*
X36660000Y-7970000D01*
X41960000Y-7970000D02*
X40310000Y-7970000D01*
X41960000Y-18250000D02*
X41960000Y-7970000D01*
X38310000Y-7970000D02*
G75*
G03*
X40310000Y-7970000I1000000J0D01*
G01*
%TO.C,R7*%
X46590000Y-5480000D02*
X47540000Y-5480000D01*
X47540000Y-4560000D02*
X47540000Y-6400000D01*
X47540000Y-6400000D02*
X51380000Y-6400000D01*
X51380000Y-4560000D02*
X47540000Y-4560000D01*
X51380000Y-6400000D02*
X51380000Y-4560000D01*
X52330000Y-5480000D02*
X51380000Y-5480000D01*
%TO.C,C8*%
X80860000Y-41661000D02*
X80860000Y-42919000D01*
X79020000Y-41661000D02*
X79020000Y-42919000D01*
%TO.C,R2*%
X17710000Y-15310000D02*
X17710000Y-16260000D01*
X18630000Y-16260000D02*
X16790000Y-16260000D01*
X16790000Y-16260000D02*
X16790000Y-20100000D01*
X18630000Y-20100000D02*
X18630000Y-16260000D01*
X16790000Y-20100000D02*
X18630000Y-20100000D01*
X17710000Y-21050000D02*
X17710000Y-20100000D01*
%TO.C,R4*%
X79940000Y-26355000D02*
X79940000Y-25405000D01*
X79020000Y-25405000D02*
X80860000Y-25405000D01*
X80860000Y-25405000D02*
X80860000Y-21565000D01*
X79020000Y-21565000D02*
X79020000Y-25405000D01*
X80860000Y-21565000D02*
X79020000Y-21565000D01*
X79940000Y-20615000D02*
X79940000Y-21565000D01*
%TO.C,J1*%
X16380000Y-35325000D02*
X16380000Y-37925000D01*
X16380000Y-35325000D02*
X19040000Y-35325000D01*
X16380000Y-37925000D02*
X19040000Y-37925000D01*
X17710000Y-32725000D02*
X19040000Y-32725000D01*
X19040000Y-32725000D02*
X19040000Y-34055000D01*
X19040000Y-35325000D02*
X19040000Y-37925000D01*
%TO.C,C9*%
X72187000Y-6146000D02*
X70929000Y-6146000D01*
X72187000Y-4306000D02*
X70929000Y-4306000D01*
%TO.C,U7*%
X54440000Y-7970000D02*
X54440000Y-18250000D01*
X54440000Y-18250000D02*
X59740000Y-18250000D01*
X56090000Y-7970000D02*
X54440000Y-7970000D01*
X59740000Y-7970000D02*
X58090000Y-7970000D01*
X59740000Y-18250000D02*
X59740000Y-7970000D01*
X56090000Y-7970000D02*
G75*
G03*
X58090000Y-7970000I1000000J0D01*
G01*
%TO.C,R5*%
X32950000Y-5150000D02*
X32950000Y-6100000D01*
X33870000Y-6100000D02*
X32030000Y-6100000D01*
X32030000Y-6100000D02*
X32030000Y-9940000D01*
X33870000Y-9940000D02*
X33870000Y-6100000D01*
X32030000Y-9940000D02*
X33870000Y-9940000D01*
X32950000Y-10890000D02*
X32950000Y-9940000D01*
D16*
%TO.C,RV1*%
X29320000Y-37445000D02*
X39120000Y-37445000D01*
X29320000Y-49445000D02*
X29320000Y-37445000D01*
X29320000Y-49445000D02*
X39120000Y-49445000D01*
X31619040Y-41443860D02*
X36820960Y-41443860D01*
X39120000Y-37445000D02*
X39120000Y-49445000D01*
X30820000Y-38545000D02*
G75*
G03*
X30820000Y-38545000I-400000J0D01*
G01*
X30820000Y-47345000D02*
G75*
G03*
X30820000Y-47345000I-400000J0D01*
G01*
X37621060Y-42945000D02*
G75*
G03*
X37621060Y-42945000I-3401060J0D01*
G01*
X37219740Y-42945000D02*
G75*
G03*
X37219740Y-42945000I-2999740J0D01*
G01*
X38420000Y-38545000D02*
G75*
G03*
X38420000Y-38545000I-400000J0D01*
G01*
X38420000Y-47345000D02*
G75*
G03*
X38420000Y-47345000I-400000J0D01*
G01*
D15*
%TO.C,D5*%
X74870000Y-31615000D02*
X74870000Y-28525000D01*
X69320001Y-30069538D02*
G75*
G03*
X74869999Y-31614830I2989999J-462D01*
G01*
X74870000Y-28525170D02*
G75*
G03*
X69320000Y-30070462I-2560000J-1544830D01*
G01*
X74810000Y-30070000D02*
G75*
G03*
X74810000Y-30070000I-2500000J0D01*
G01*
%TO.C,SW1*%
X51040000Y-41980000D02*
X51040000Y-43480000D01*
X52290000Y-45980000D02*
X56790000Y-45980000D01*
X56790000Y-39480000D02*
X52290000Y-39480000D01*
X58040000Y-43480000D02*
X58040000Y-41980000D01*
%TO.C,D1*%
X16640000Y-45940000D02*
X16640000Y-51380000D01*
X16510000Y-45940000D02*
X16640000Y-45940000D01*
X13830000Y-45940000D02*
X13700000Y-45940000D01*
X13700000Y-45940000D02*
X13700000Y-51380000D01*
X16640000Y-46720000D02*
X13700000Y-46720000D01*
X16640000Y-46840000D02*
X13700000Y-46840000D01*
X16640000Y-46960000D02*
X13700000Y-46960000D01*
X16640000Y-51380000D02*
X16510000Y-51380000D01*
X13700000Y-51380000D02*
X13830000Y-51380000D01*
%TO.C,U8*%
X69680000Y-7955000D02*
X69680000Y-25855000D01*
X69680000Y-25855000D02*
X74980000Y-25855000D01*
X71330000Y-7955000D02*
X69680000Y-7955000D01*
X74980000Y-7955000D02*
X73330000Y-7955000D01*
X74980000Y-25855000D02*
X74980000Y-7955000D01*
X71330000Y-7955000D02*
G75*
G03*
X73330000Y-7955000I1000000J0D01*
G01*
%TO.C,C1*%
X23411000Y-19800000D02*
X24669000Y-19800000D01*
X23411000Y-21640000D02*
X24669000Y-21640000D01*
%TO.C,J2*%
X78610000Y-35325000D02*
X78610000Y-37925000D01*
X78610000Y-35325000D02*
X81270000Y-35325000D01*
X78610000Y-37925000D02*
X81270000Y-37925000D01*
X79940000Y-32725000D02*
X81270000Y-32725000D01*
X81270000Y-32725000D02*
X81270000Y-34055000D01*
X81270000Y-35325000D02*
X81270000Y-37925000D01*
%TO.C,C7*%
X57719000Y-6390000D02*
X56461000Y-6390000D01*
X57719000Y-4550000D02*
X56461000Y-4550000D01*
%TO.C,U1*%
X21420000Y-7970000D02*
X21420000Y-18250000D01*
X21420000Y-18250000D02*
X26720000Y-18250000D01*
X23070000Y-7970000D02*
X21420000Y-7970000D01*
X26720000Y-7970000D02*
X25070000Y-7970000D01*
X26720000Y-18250000D02*
X26720000Y-7970000D01*
X23070000Y-7970000D02*
G75*
G03*
X25070000Y-7970000I1000000J0D01*
G01*
%TO.C,C4*%
X8199000Y-35610000D02*
X6941000Y-35610000D01*
X8199000Y-33770000D02*
X6941000Y-33770000D01*
%TO.C,C12*%
X48439801Y-21915000D02*
X48039801Y-21915000D01*
X48239801Y-22115000D02*
X48239801Y-21715000D01*
X46170000Y-22800000D02*
X46170000Y-21560000D01*
X46170000Y-19880000D02*
X46170000Y-18640000D01*
X46130000Y-22800000D02*
X46130000Y-21560000D01*
X46130000Y-19880000D02*
X46130000Y-18640000D01*
X46090000Y-22799000D02*
X46090000Y-21560000D01*
X46090000Y-19880000D02*
X46090000Y-18641000D01*
X46050000Y-22797000D02*
X46050000Y-21560000D01*
X46050000Y-19880000D02*
X46050000Y-18643000D01*
X46010000Y-22794000D02*
X46010000Y-21560000D01*
X46010000Y-19880000D02*
X46010000Y-18646000D01*
X45970000Y-22791000D02*
X45970000Y-21560000D01*
X45970000Y-19880000D02*
X45970000Y-18649000D01*
X45930000Y-22787000D02*
X45930000Y-21560000D01*
X45930000Y-19880000D02*
X45930000Y-18653000D01*
X45890000Y-22782000D02*
X45890000Y-21560000D01*
X45890000Y-19880000D02*
X45890000Y-18658000D01*
X45850000Y-22776000D02*
X45850000Y-21560000D01*
X45850000Y-19880000D02*
X45850000Y-18664000D01*
X45810000Y-22770000D02*
X45810000Y-21560000D01*
X45810000Y-19880000D02*
X45810000Y-18670000D01*
X45770000Y-22762000D02*
X45770000Y-21560000D01*
X45770000Y-19880000D02*
X45770000Y-18678000D01*
X45730000Y-22754000D02*
X45730000Y-21560000D01*
X45730000Y-19880000D02*
X45730000Y-18686000D01*
X45690000Y-22745000D02*
X45690000Y-21560000D01*
X45690000Y-19880000D02*
X45690000Y-18695000D01*
X45650000Y-22736000D02*
X45650000Y-21560000D01*
X45650000Y-19880000D02*
X45650000Y-18704000D01*
X45610000Y-22725000D02*
X45610000Y-21560000D01*
X45610000Y-19880000D02*
X45610000Y-18715000D01*
X45570000Y-22714000D02*
X45570000Y-21560000D01*
X45570000Y-19880000D02*
X45570000Y-18726000D01*
X45530000Y-22702000D02*
X45530000Y-21560000D01*
X45530000Y-19880000D02*
X45530000Y-18738000D01*
X45490000Y-22688000D02*
X45490000Y-21560000D01*
X45490000Y-19880000D02*
X45490000Y-18752000D01*
X45449000Y-22674000D02*
X45449000Y-21560000D01*
X45449000Y-19880000D02*
X45449000Y-18766000D01*
X45409000Y-22660000D02*
X45409000Y-21560000D01*
X45409000Y-19880000D02*
X45409000Y-18780000D01*
X45369000Y-22644000D02*
X45369000Y-21560000D01*
X45369000Y-19880000D02*
X45369000Y-18796000D01*
X45329000Y-22627000D02*
X45329000Y-21560000D01*
X45329000Y-19880000D02*
X45329000Y-18813000D01*
X45289000Y-22609000D02*
X45289000Y-21560000D01*
X45289000Y-19880000D02*
X45289000Y-18831000D01*
X45249000Y-22590000D02*
X45249000Y-21560000D01*
X45249000Y-19880000D02*
X45249000Y-18850000D01*
X45209000Y-22571000D02*
X45209000Y-21560000D01*
X45209000Y-19880000D02*
X45209000Y-18869000D01*
X45169000Y-22550000D02*
X45169000Y-21560000D01*
X45169000Y-19880000D02*
X45169000Y-18890000D01*
X45129000Y-22528000D02*
X45129000Y-21560000D01*
X45129000Y-19880000D02*
X45129000Y-18912000D01*
X45089000Y-22505000D02*
X45089000Y-21560000D01*
X45089000Y-19880000D02*
X45089000Y-18935000D01*
X45049000Y-22480000D02*
X45049000Y-21560000D01*
X45049000Y-19880000D02*
X45049000Y-18960000D01*
X45009000Y-22455000D02*
X45009000Y-21560000D01*
X45009000Y-19880000D02*
X45009000Y-18985000D01*
X44969000Y-22428000D02*
X44969000Y-21560000D01*
X44969000Y-19880000D02*
X44969000Y-19012000D01*
X44929000Y-22400000D02*
X44929000Y-21560000D01*
X44929000Y-19880000D02*
X44929000Y-19040000D01*
X44889000Y-22370000D02*
X44889000Y-21560000D01*
X44889000Y-19880000D02*
X44889000Y-19070000D01*
X44849000Y-22339000D02*
X44849000Y-21560000D01*
X44849000Y-19880000D02*
X44849000Y-19101000D01*
X44809000Y-22307000D02*
X44809000Y-21560000D01*
X44809000Y-19880000D02*
X44809000Y-19133000D01*
X44769000Y-22272000D02*
X44769000Y-21560000D01*
X44769000Y-19880000D02*
X44769000Y-19168000D01*
X44729000Y-22236000D02*
X44729000Y-21560000D01*
X44729000Y-19880000D02*
X44729000Y-19204000D01*
X44689000Y-22198000D02*
X44689000Y-21560000D01*
X44689000Y-19880000D02*
X44689000Y-19242000D01*
X44649000Y-22158000D02*
X44649000Y-21560000D01*
X44649000Y-19880000D02*
X44649000Y-19282000D01*
X44609000Y-22116000D02*
X44609000Y-21560000D01*
X44609000Y-19880000D02*
X44609000Y-19324000D01*
X44569000Y-22071000D02*
X44569000Y-19369000D01*
X44529000Y-22024000D02*
X44529000Y-19416000D01*
X44489000Y-21974000D02*
X44489000Y-19466000D01*
X44449000Y-21920000D02*
X44449000Y-19520000D01*
X44409000Y-21862000D02*
X44409000Y-19578000D01*
X44369000Y-21800000D02*
X44369000Y-19640000D01*
X44329000Y-21733000D02*
X44329000Y-19707000D01*
X44289000Y-21660000D02*
X44289000Y-19780000D01*
X44249000Y-21579000D02*
X44249000Y-19861000D01*
X44209000Y-21488000D02*
X44209000Y-19952000D01*
X44169000Y-21384000D02*
X44169000Y-20056000D01*
X44129000Y-21257000D02*
X44129000Y-20183000D01*
X44089000Y-21090000D02*
X44089000Y-20350000D01*
X48290000Y-20720000D02*
G75*
G03*
X48290000Y-20720000I-2120000J0D01*
G01*
%TO.C,R3*%
X46920000Y-15335000D02*
X46920000Y-14385000D01*
X46000000Y-14385000D02*
X47840000Y-14385000D01*
X47840000Y-14385000D02*
X47840000Y-10545000D01*
X46000000Y-10545000D02*
X46000000Y-14385000D01*
X47840000Y-10545000D02*
X46000000Y-10545000D01*
X46920000Y-9595000D02*
X46920000Y-10545000D01*
%TO.C,D3*%
X83770000Y-15915000D02*
X83770000Y-12825000D01*
X78220001Y-14369538D02*
G75*
G03*
X83769999Y-15914830I2989999J-462D01*
G01*
X83770000Y-12825170D02*
G75*
G03*
X78220000Y-14370462I-2560000J-1544830D01*
G01*
X83710000Y-14370000D02*
G75*
G03*
X83710000Y-14370000I-2500000J0D01*
G01*
%TO.C,R1*%
X30410000Y-9595000D02*
X30410000Y-10545000D01*
X31330000Y-10545000D02*
X29490000Y-10545000D01*
X29490000Y-10545000D02*
X29490000Y-14385000D01*
X31330000Y-14385000D02*
X31330000Y-10545000D01*
X29490000Y-14385000D02*
X31330000Y-14385000D01*
X30410000Y-15335000D02*
X30410000Y-14385000D01*
%TO.C,R8*%
X64700000Y-12922000D02*
X64700000Y-11972000D01*
X63780000Y-11972000D02*
X65620000Y-11972000D01*
X65620000Y-11972000D02*
X65620000Y-8132000D01*
X63780000Y-8132000D02*
X63780000Y-11972000D01*
X65620000Y-8132000D02*
X63780000Y-8132000D01*
X64700000Y-7182000D02*
X64700000Y-8132000D01*
%TO.C,C6*%
X39949000Y-6410000D02*
X38691000Y-6410000D01*
X39949000Y-4570000D02*
X38691000Y-4570000D01*
%TO.C,D4*%
X57090000Y-31615000D02*
X57090000Y-28525000D01*
X51540001Y-30069538D02*
G75*
G03*
X57089999Y-31614830I2989999J-462D01*
G01*
X57090000Y-28525170D02*
G75*
G03*
X51540000Y-30070462I-2560000J-1544830D01*
G01*
X57030000Y-30070000D02*
G75*
G03*
X57030000Y-30070000I-2500000J0D01*
G01*
%TD*%
D17*
%TO.C,RV1*%
X29420000Y-42945000D03*
X39020000Y-42945000D03*
D18*
X31719999Y-49944999D03*
X34219999Y-49944999D03*
X36719999Y-49944999D03*
%TD*%
M02*
