M48
; DRILL file {KiCad (6.99.0-1487-g4c225cff5b)} date Mon Mar 28 23:32:51 2022
; FORMAT={-:-/ absolute / metric / decimal}
; #@! TF.CreationDate,2022-03-28T23:32:51+02:00
; #@! TF.GenerationSoftware,Kicad,Pcbnew,(6.99.0-1487-g4c225cff5b)
; #@! TF.FileFunction,Plated,1,2,PTH
FMAT,2
METRIC
; #@! TA.AperFunction,Plated,PTH,ViaDrill
T1C0.400
; #@! TA.AperFunction,Plated,PTH,ComponentDrill
T2C0.600
; #@! TA.AperFunction,Plated,PTH,ComponentDrill
T3C0.700
; #@! TA.AperFunction,Plated,PTH,ComponentDrill
T4C0.800
; #@! TA.AperFunction,Plated,PTH,ComponentDrill
T5C0.900
; #@! TA.AperFunction,Plated,PTH,ComponentDrill
T6C1.000
; #@! TA.AperFunction,Plated,PTH,ComponentDrill
T7C1.100
; #@! TA.AperFunction,Plated,PTH,ComponentDrill
T8C2.200
%
G90
G05
T1
X59.62Y-25.165
X62.795Y-25.165
T2
X15.805Y-7.79
X15.805Y-9.29
X45.42Y-20.72
X46.92Y-20.72
T3
X17.71Y-14.37
X17.71Y-21.99
X30.41Y-8.655
X30.41Y-16.275
X32.95Y-4.21
X32.95Y-11.83
X32.95Y-14.37
X32.95Y-21.99
X45.65Y-5.48
X46.92Y-8.655
X46.92Y-16.275
X50.72Y-14.36
X50.72Y-21.98
X53.27Y-5.48
X53.27Y-20.085
X60.89Y-20.085
X64.7Y-6.242
X64.7Y-13.862
X79.94Y-19.675
X79.94Y-27.295
T4
X6.28Y-39.77
X6.32Y-34.69
X8.78Y-39.77
X8.82Y-34.69
X20.26Y-9.3
X20.26Y-11.84
X20.26Y-14.38
X20.26Y-16.92
X22.79Y-20.72
X22.84Y-5.49
X25.29Y-20.72
X25.34Y-5.49
X27.88Y-9.3
X27.88Y-11.84
X27.88Y-14.38
X27.88Y-16.92
X35.5Y-9.3
X35.5Y-11.84
X35.5Y-14.38
X35.5Y-16.92
X38.03Y-20.72
X38.07Y-5.49
X40.53Y-20.72
X40.57Y-5.49
X43.12Y-9.3
X43.12Y-11.84
X43.12Y-14.38
X43.12Y-16.92
X53.28Y-9.3
X53.28Y-11.84
X53.28Y-14.38
X53.28Y-16.92
X55.84Y-5.47
X58.34Y-5.47
X60.9Y-9.3
X60.9Y-11.84
X60.9Y-14.38
X60.9Y-16.92
X68.52Y-9.285
X68.52Y-11.825
X68.52Y-14.365
X68.52Y-16.905
X68.52Y-19.445
X68.52Y-21.985
X68.52Y-24.525
X70.308Y-5.226
X72.808Y-5.226
X76.14Y-9.285
X76.14Y-11.825
X76.14Y-14.365
X76.14Y-16.905
X76.14Y-19.445
X76.14Y-21.985
X76.14Y-24.525
X79.94Y-41.04
X79.94Y-43.54
T5
X32.95Y-30.07
X35.49Y-30.07
X53.26Y-30.07
X55.8Y-30.07
X71.04Y-30.07
X73.58Y-30.07
X79.94Y-14.37
X82.48Y-14.37
T6
X17.71Y-34.055
X17.71Y-36.595
X31.5Y-50.0
X34.0Y-50.0
X36.5Y-50.0
X79.94Y-34.055
X79.94Y-36.595
T7
X6.28Y-31.22
X8.82Y-31.22
X11.36Y-31.22
X15.17Y-44.85
X15.17Y-52.47
X51.29Y-40.48
X51.29Y-44.98
X57.79Y-40.48
X57.79Y-44.98
X68.816Y-40.48
X68.816Y-44.98
X75.316Y-40.48
X75.316Y-44.98
T8
X29.2Y-43.0
X38.8Y-43.0
T6
G00X4.425Y-47.545
M15
G01X4.425Y-49.745
M16
G05
G00X8.925Y-53.445
M15
G01X6.725Y-53.445
M16
G05
G00X10.725Y-47.345
M15
G01X10.725Y-49.945
M16
G05
T0
M30
