M48
; DRILL file {KiCad 6.99.0-unknown-38bd612c01~148~ubuntu21.10.1} date Mon 28 Mar 2022 07:48:20 PM CEST
; FORMAT={-:-/ absolute / inch / decimal}
; #@! TF.CreationDate,2022-03-28T19:48:20+02:00
; #@! TF.GenerationSoftware,Kicad,Pcbnew,6.99.0-unknown-38bd612c01~148~ubuntu21.10.1
; #@! TF.FileFunction,Plated,1,2,PTH
FMAT,2
INCH
; #@! TA.AperFunction,Plated,PTH,ViaDrill
T1C0.0157
; #@! TA.AperFunction,Plated,PTH,ComponentDrill
T2C0.0236
; #@! TA.AperFunction,Plated,PTH,ComponentDrill
T3C0.0276
; #@! TA.AperFunction,Plated,PTH,ComponentDrill
T4C0.0315
; #@! TA.AperFunction,Plated,PTH,ComponentDrill
T5C0.0354
; #@! TA.AperFunction,Plated,PTH,ComponentDrill
T6C0.0394
; #@! TA.AperFunction,Plated,PTH,ComponentDrill
T7C0.0433
; #@! TA.AperFunction,Plated,PTH,ComponentDrill
T8C0.0866
%
G90
G05
T1
X2.3472Y-0.9907
X2.4722Y-0.9907
T2
X0.6222Y-0.3067
X0.6222Y-0.3657
X1.7882Y-0.8157
X1.8472Y-0.8157
T3
X0.6972Y-0.5657
X0.6972Y-0.8657
X1.1972Y-0.3407
X1.1972Y-0.6407
X1.2972Y-0.1657
X1.2972Y-0.4657
X1.2972Y-0.5657
X1.2972Y-0.8657
X1.7972Y-0.2157
X1.8472Y-0.3407
X1.8472Y-0.6407
X1.9969Y-0.5654
X1.9969Y-0.8654
X2.0972Y-0.2157
X2.0972Y-0.7907
X2.3972Y-0.7907
X2.5472Y-0.2457
X2.5472Y-0.5457
X3.1472Y-0.7746
X3.1472Y-1.0746
T4
X0.2472Y-1.5657
X0.2488Y-1.3657
X0.3457Y-1.5657
X0.3472Y-1.3657
X0.7976Y-0.3661
X0.7976Y-0.4661
X0.7976Y-0.5661
X0.7976Y-0.6661
X0.8972Y-0.8157
X0.8992Y-0.2161
X0.9957Y-0.8157
X0.9976Y-0.2161
X1.0976Y-0.3661
X1.0976Y-0.4661
X1.0976Y-0.5661
X1.0976Y-0.6661
X1.3976Y-0.3661
X1.3976Y-0.4661
X1.3976Y-0.5661
X1.3976Y-0.6661
X1.4972Y-0.8157
X1.4988Y-0.2161
X1.5957Y-0.8157
X1.5972Y-0.2161
X1.6976Y-0.3661
X1.6976Y-0.4661
X1.6976Y-0.5661
X1.6976Y-0.6661
X2.0976Y-0.3661
X2.0976Y-0.4661
X2.0976Y-0.5661
X2.0976Y-0.6661
X2.1984Y-0.2154
X2.2969Y-0.2154
X2.3976Y-0.3661
X2.3976Y-0.4661
X2.3976Y-0.5661
X2.3976Y-0.6661
X2.6976Y-0.3656
X2.6976Y-0.4656
X2.6976Y-0.5656
X2.6976Y-0.6656
X2.6976Y-0.7656
X2.6976Y-0.8656
X2.6976Y-0.9656
X2.768Y-0.2057
X2.8665Y-0.2057
X2.9976Y-0.3656
X2.9976Y-0.4656
X2.9976Y-0.5656
X2.9976Y-0.6656
X2.9976Y-0.7656
X2.9976Y-0.8656
X2.9976Y-0.9656
X3.1472Y-1.6157
X3.1472Y-1.7142
T5
X1.2972Y-1.1839
X1.3972Y-1.1839
X2.0969Y-1.1839
X2.1969Y-1.1839
X2.7969Y-1.1839
X2.8969Y-1.1839
X3.1472Y-0.5657
X3.2472Y-0.5657
T6
X0.6972Y-1.3407
X0.6972Y-1.4407
X1.2488Y-1.9663
X1.3472Y-1.9663
X1.4457Y-1.9663
X3.1472Y-1.3407
X3.1472Y-1.4407
T7
X0.2472Y-1.2291
X0.3472Y-1.2291
X0.4472Y-1.2291
X0.5972Y-1.7657
X0.5972Y-2.0657
X2.0193Y-1.5937
X2.0193Y-1.7709
X2.2752Y-1.5937
X2.2752Y-1.7709
X2.7093Y-1.5937
X2.7093Y-1.7709
X2.9652Y-1.5937
X2.9652Y-1.7709
T8
X1.1583Y-1.6907
X1.5362Y-1.6907
T6
G00X0.1742Y-1.8719
M15
G01X0.1742Y-1.9585
M16
G05
G00X0.3514Y-2.1041
M15
G01X0.2648Y-2.1041
M16
G05
G00X0.4222Y-1.864
M15
G01X0.4222Y-1.9663
M16
G05
T0
M30
